<?xml version="1.0" encoding="utf-8"?>
<!-- Generator: Adobe Illustrator 24.3.0, SVG Export Plug-In . SVG Version: 6.00 Build 0)  -->
<svg version="1.2" baseProfile="tiny" id="Layer_1" xmlns="http://www.w3.org/2000/svg" xmlns:xlink="http://www.w3.org/1999/xlink"
	 x="0px" y="0px" viewBox="0 0 1192.6 294.1" overflow="visible" xml:space="preserve">
<g>
	<rect x="39.1" y="69.5" fill="#0057FC" width="50.3" height="147.2"/>
	<rect x="197" y="69.5" fill="#0057FC" width="50.3" height="147.2"/>
	<g>
		<rect x="118" y="24.3" fill="#0057FC" width="48.8" height="107.2"/>
		<rect x="118" y="154.6" fill="#0057FC" width="48.8" height="107.2"/>
	</g>
</g>
<g>
	<g>
		<path fill="#FFFFFF" d="M301.3,101h22.2v37.7h26.6V101h22.2v98h-22.2v-40.9h-26.6V199h-22.2V101z"/>
		<path fill="#FFFFFF" d="M400.6,180.4h22.9v-60.8h-22.9V101h67.9v18.6h-22.9v60.8h22.9V199h-67.9V180.4z"/>
		<path fill="#FFFFFF" d="M497.3,101h22.4v40h0.6l28.9-40h24.6l-54,71.2V199h-22.4v-98H497.3z M529.1,153.5l13-17.3l34.4,62.8h-24.6
			L529.1,153.5z"/>
		<path fill="#FFFFFF" d="M593.5,101h23.2l9.6,34.7l3.3,13.5h0.6l3.2-13.5L643,101h23.2v98h-18.7v-30.3c0-11,1.9-34.9,3-45.5H650
			l-7.5,26.3L635,173h-10.8l-7.8-23.6l-7-26.3H609c1.1,10.6,3,34.5,3,45.5v30.3h-18.4L593.5,101L593.5,101z"/>
		<path fill="#FFFFFF" d="M714.3,101h26.6l30.5,98h-23.5l-12.6-49.6c-2.5-9.8-5.5-21.3-7.8-31.6h-0.6c-2.4,10.3-5.1,21.8-7.6,31.6
			L706.6,199h-22.7L714.3,101z M704,158.4h46.9v17.3H704V158.4z"/>
		<path fill="#FFFFFF" d="M814.2,119.6h-29.4V101h80.9v18.6h-29.4V199h-22.2v-79.4H814.2z"/>
		<path fill="#FFFFFF" d="M888.3,101h34.8c20.8,0,37.8,7.2,37.8,30.5c0,22.5-17.1,32.2-37.8,32.2h-12.6v35.2h-22.2V101z
			 M921.4,146.1c11.6,0,17.9-5,17.9-14.6c0-9.7-6.2-12.9-17.9-12.9h-10.8v27.5H921.4z M934.4,143.7l31.3,55.3h-24.8l-21.8-41.1
			L934.4,143.7z"/>
		<path fill="#FFFFFF" d="M981.3,149.5c0-32.7,16.1-50.3,39.4-50.3c23.3,0,39.4,17.6,39.4,50.3c0,33.5-16.1,51.2-39.4,51.2
			C997.4,200.8,981.3,183,981.3,149.5z M1037.4,149.5c0-20.4-6.4-31.2-16.7-31.2c-10.2,0-16.7,10.8-16.7,31.2
			c0,21.1,6.5,32.1,16.7,32.1S1037.4,170.7,1037.4,149.5z"/>
		<path fill="#FFFFFF" d="M1083.2,101h22.7l20.6,48.7l8.4,21.5h0.5c-1-10.3-3.1-24-3.1-35.6V101h21.1v98h-22.7l-20.6-48.8l-8.4-21.4
			h-0.5c1,10.8,3.1,24,3.1,35.5V199h-21.1V101z"/>
	</g>
</g>
</svg>
