<?xml version="1.0" encoding="utf-8"?>
<!-- Generator: Adobe Illustrator 24.3.0, SVG Export Plug-In . SVG Version: 6.00 Build 0)  -->
<svg version="1.2" baseProfile="tiny" id="Layer_1" xmlns="http://www.w3.org/2000/svg" xmlns:xlink="http://www.w3.org/1999/xlink"
	 x="0px" y="0px" viewBox="0 0 363.3 497.7" overflow="visible" xml:space="preserve">
<g>
	<path fill="#373F51" d="M125.5,294.8h-80c-10.8,0-19.5-8.7-19.5-19.5V144.1c0-10.8,8.7-19.5,19.5-19.5h80
		c10.8,0,19.5,8.7,19.5,19.5v131.2C145,286.1,136.3,294.8,125.5,294.8z"/>
	<path fill="#292F3D" d="M126.1,294H46.5c-10.9,0-19.7-8.8-19.7-19.7V143.5c0-5.2,2-10,5.4-13.5c-3.8,3.6-6.2,8.7-6.2,14.4v130.8
		c0,10.9,8.8,19.7,19.7,19.7h79.6c5.7,0,10.8-2.4,14.4-6.2C136.1,292,131.4,294,126.1,294z"/>
	<g>
		<path fill="#FFFFFF" d="M105.4,163.3H72.7c-0.9,0-1.6-0.7-1.6-1.6l0,0c0-0.9,0.7-1.6,1.6-1.6h32.7c0.9,0,1.6,0.7,1.6,1.6l0,0
			C107,162.6,106.3,163.3,105.4,163.3z"/>
	</g>
	<path fill="#4B5262" d="M125.5,124.6h-80c-10.8,0-19.5,8.7-19.5,19.5v2.5H145v-2.5C145,133.3,136.3,124.6,125.5,124.6z"/>
	<path fill="#5F6574" d="M125.3,124.6H45.7c-4.7,0-9,1.6-12.4,4.4c3.2-2.2,7.1-3.6,11.3-3.6h79.6c10.9,0,19.7,8.8,19.7,19.7v130.8
		c0,6.2-2.9,11.8-7.4,15.4c5.1-3.6,8.5-9.5,8.5-16.2V144.3C145,133.4,136.2,124.6,125.3,124.6z"/>
	<g>
		<path fill="#FFFFFF" d="M48.3,162.6c-0.1,0-0.2,0-0.3-0.1c-0.1-0.1-0.1-0.4,0-0.5l1.1-1.1l-1.1-1.1c-0.1-0.1-0.1-0.4,0-0.5
			c0.1-0.1,0.4-0.1,0.5,0l1.6,1.6l-1.6,1.6C48.5,162.6,48.4,162.6,48.3,162.6z"/>
	</g>
	<g>
		<linearGradient id="SVGID_1_" gradientUnits="userSpaceOnUse" x1="59.3177" y1="165.7615" x2="59.2423" y2="157.0944">
			<stop  offset="0" style="stop-color:#FF9800"/>
			<stop  offset="0.2455" style="stop-color:#FDAF1F"/>
			<stop  offset="0.5617" style="stop-color:#FBC740"/>
			<stop  offset="0.8246" style="stop-color:#F9D755"/>
			<stop  offset="1" style="stop-color:#F9DC5C"/>
		</linearGradient>
		<path fill="url(#SVGID_1_)" d="M63.4,164.7h-8.1c-0.4,0-0.7-0.3-0.7-0.7v-6.2c0-0.4,0.3-0.7,0.7-0.7h2.6c0.2,0,0.3,0.1,0.4,0.2
			l0.7,1h4.4c0.4,0,0.7,0.3,0.7,0.7v5C64.1,164.4,63.8,164.7,63.4,164.7z"/>
		<path fill="#F9DC5C" d="M63.4,158.2H59l-0.7-1c-0.1-0.1-0.3-0.2-0.4-0.2h-2.6c-0.3,0-0.5,0.1-0.6,0.3c0.1-0.1,0.3-0.1,0.4-0.1h2.6
			c0.2,0,0.3,0.1,0.4,0.2l0.7,1h4.4c0.4,0,0.7,0.3,0.7,0.7v5c0,0.2,0,0.3-0.1,0.4c0.2-0.1,0.3-0.4,0.3-0.6v-5
			C64.1,158.6,63.8,158.2,63.4,158.2z"/>
		<path fill="#FF9800" d="M63.6,164.5h-8.1c-0.4,0-0.7-0.3-0.7-0.7v-6.2c0-0.2,0-0.3,0.1-0.4c-0.2,0.1-0.3,0.4-0.3,0.6v6.2
			c0,0.4,0.3,0.7,0.7,0.7h8.1c0.3,0,0.5-0.1,0.6-0.3C63.8,164.5,63.7,164.5,63.6,164.5z"/>
	</g>
	<g>
		<path fill="#FFFFFF" d="M121.2,240.7H72.7c-0.9,0-1.6-0.7-1.6-1.6l0,0c0-0.9,0.7-1.6,1.6-1.6h48.5c0.9,0,1.6,0.7,1.6,1.6l0,0
			C122.8,240,122.1,240.7,121.2,240.7z"/>
	</g>
	<g>
		<path fill="#FFFFFF" d="M48.3,240c-0.1,0-0.2,0-0.3-0.1c-0.1-0.1-0.1-0.4,0-0.5l1.1-1.1l-1.1-1.1c-0.1-0.1-0.1-0.4,0-0.5
			c0.1-0.1,0.4-0.1,0.5,0l1.6,1.6l-1.6,1.6C48.5,240,48.4,240,48.3,240z"/>
	</g>
	<g>
		<linearGradient id="SVGID_2_" gradientUnits="userSpaceOnUse" x1="59.3177" y1="181.9249" x2="59.2423" y2="173.2577">
			<stop  offset="0" style="stop-color:#FF9800"/>
			<stop  offset="0.2455" style="stop-color:#FDAF1F"/>
			<stop  offset="0.5617" style="stop-color:#FBC740"/>
			<stop  offset="0.8246" style="stop-color:#F9D755"/>
			<stop  offset="1" style="stop-color:#F9DC5C"/>
		</linearGradient>
		<path fill="url(#SVGID_2_)" d="M63.4,180.9h-8.1c-0.4,0-0.7-0.3-0.7-0.7V174c0-0.4,0.3-0.7,0.7-0.7h2.6c0.2,0,0.3,0.1,0.4,0.2
			l0.7,1h4.4c0.4,0,0.7,0.3,0.7,0.7v5C64.1,180.6,63.8,180.9,63.4,180.9z"/>
		<path fill="#F9DC5C" d="M63.4,174.4H59l-0.7-1c-0.1-0.1-0.3-0.2-0.4-0.2h-2.6c-0.3,0-0.5,0.1-0.6,0.3c0.1-0.1,0.3-0.1,0.4-0.1h2.6
			c0.2,0,0.3,0.1,0.4,0.2l0.7,1h4.4c0.4,0,0.7,0.3,0.7,0.7v5c0,0.2,0,0.3-0.1,0.4c0.2-0.1,0.3-0.4,0.3-0.6v-5
			C64.1,174.7,63.8,174.4,63.4,174.4z"/>
		<path fill="#FF9800" d="M63.6,180.7h-8.1c-0.4,0-0.7-0.3-0.7-0.7v-6.2c0-0.2,0-0.3,0.1-0.4c-0.2,0.1-0.3,0.4-0.3,0.6v6.2
			c0,0.4,0.3,0.7,0.7,0.7h8.1c0.3,0,0.5-0.1,0.6-0.3C63.8,180.6,63.7,180.7,63.6,180.7z"/>
	</g>
	<g>
		<path fill="#FFFFFF" d="M93.5,179.6H72.7c-0.9,0-1.6-0.7-1.6-1.6l0,0c0-0.9,0.7-1.6,1.6-1.6h20.9c0.9,0,1.6,0.7,1.6,1.6l0,0
			C95.2,178.8,94.4,179.6,93.5,179.6z"/>
	</g>
	<g>
		<path fill="#FF97B7" d="M123.1,193.5H92.3c-0.9,0-1.6-0.7-1.6-1.6l0,0c0-0.9,0.7-1.6,1.6-1.6h30.7c0.9,0,1.6,0.7,1.6,1.6l0,0
			C124.7,192.8,124,193.5,123.1,193.5z"/>
	</g>
	<g>
		<path fill="#FFFFFF" d="M49,178.3l-1.6-1.6c-0.1-0.1-0.1-0.4,0-0.5c0.1-0.1,0.4-0.1,0.5,0l1.1,1.1l1.1-1.1c0.1-0.1,0.4-0.1,0.5,0
			s0.1,0.4,0,0.5L49,178.3z"/>
	</g>
	<g>
		<linearGradient id="SVGID_3_" gradientUnits="userSpaceOnUse" x1="59.3177" y1="243.2688" x2="59.2423" y2="234.6017">
			<stop  offset="0" style="stop-color:#FF9800"/>
			<stop  offset="0.2455" style="stop-color:#FDAF1F"/>
			<stop  offset="0.5617" style="stop-color:#FBC740"/>
			<stop  offset="0.8246" style="stop-color:#F9D755"/>
			<stop  offset="1" style="stop-color:#F9DC5C"/>
		</linearGradient>
		<path fill="url(#SVGID_3_)" d="M63.4,242.2h-8.1c-0.4,0-0.7-0.3-0.7-0.7v-6.2c0-0.4,0.3-0.7,0.7-0.7h2.6c0.2,0,0.3,0.1,0.4,0.2
			l0.7,1h4.4c0.4,0,0.7,0.3,0.7,0.7v5C64.1,241.9,63.8,242.2,63.4,242.2z"/>
		<path fill="#F9DC5C" d="M63.4,235.8H59l-0.7-1c-0.1-0.1-0.3-0.2-0.4-0.2h-2.6c-0.3,0-0.5,0.1-0.6,0.3c0.1-0.1,0.3-0.1,0.4-0.1h2.6
			c0.2,0,0.3,0.1,0.4,0.2l0.7,1h4.4c0.4,0,0.7,0.3,0.7,0.7v5c0,0.2,0,0.3-0.1,0.4c0.2-0.1,0.3-0.4,0.3-0.6v-5
			C64.1,236.1,63.8,235.8,63.4,235.8z"/>
		<path fill="#FF9800" d="M63.6,242h-8.1c-0.4,0-0.7-0.3-0.7-0.7v-6.2c0-0.2,0-0.3,0.1-0.4c-0.2,0.1-0.3,0.4-0.3,0.6v6.2
			c0,0.4,0.3,0.7,0.7,0.7h8.1c0.3,0,0.5-0.1,0.6-0.3C63.8,242,63.7,242,63.6,242z"/>
	</g>
	<g>
		<path fill="#FFFFFF" d="M103.1,256.9H72.8c-0.9,0-1.6-0.7-1.6-1.6l0,0c0-0.9,0.7-1.6,1.6-1.6h30.3c0.9,0,1.6,0.7,1.6,1.6l0,0
			C104.8,256.1,104.1,256.9,103.1,256.9z"/>
	</g>
	<g>
		<path fill="#FFFFFF" d="M48.5,256.2c-0.1,0-0.2,0-0.3-0.1c-0.1-0.1-0.1-0.4,0-0.5l1.1-1.1l-1.1-1.1c-0.1-0.1-0.1-0.4,0-0.5
			c0.1-0.1,0.4-0.1,0.5,0l1.6,1.6l-1.6,1.6C48.7,256.1,48.6,256.2,48.5,256.2z"/>
	</g>
	<g>
		<linearGradient id="SVGID_4_" gradientUnits="userSpaceOnUse" x1="59.4857" y1="259.4217" x2="59.4103" y2="250.7546">
			<stop  offset="0" style="stop-color:#FF9800"/>
			<stop  offset="0.2455" style="stop-color:#FDAF1F"/>
			<stop  offset="0.5617" style="stop-color:#FBC740"/>
			<stop  offset="0.8246" style="stop-color:#F9D755"/>
			<stop  offset="1" style="stop-color:#F9DC5C"/>
		</linearGradient>
		<path fill="url(#SVGID_4_)" d="M63.5,258.4h-8.1c-0.4,0-0.7-0.3-0.7-0.7v-6.2c0-0.4,0.3-0.7,0.7-0.7H58c0.2,0,0.3,0.1,0.4,0.2
			l0.7,1h4.4c0.4,0,0.7,0.3,0.7,0.7v5C64.3,258.1,63.9,258.4,63.5,258.4z"/>
		<path fill="#F9DC5C" d="M63.5,251.9h-4.4l-0.7-1c-0.1-0.1-0.3-0.2-0.4-0.2h-2.6c-0.3,0-0.5,0.1-0.6,0.3c0.1-0.1,0.3-0.1,0.4-0.1
			h2.6c0.2,0,0.3,0.1,0.4,0.2l0.7,1h4.4c0.4,0,0.7,0.3,0.7,0.7v5c0,0.2,0,0.3-0.1,0.4c0.2-0.1,0.3-0.4,0.3-0.6v-5
			C64.3,252.2,63.9,251.9,63.5,251.9z"/>
		<path fill="#FF9800" d="M63.7,258.2h-8.1c-0.4,0-0.7-0.3-0.7-0.7v-6.2c0-0.2,0-0.3,0.1-0.4c-0.2,0.1-0.3,0.4-0.3,0.6v6.2
			c0,0.4,0.3,0.7,0.7,0.7h8.1c0.3,0,0.5-0.1,0.6-0.3C64,258.1,63.9,258.2,63.7,258.2z"/>
	</g>
	<g>
		<path fill="#FFFFFF" d="M113,273H73.2c-0.9,0-1.6-0.7-1.6-1.6l0,0c0-0.9,0.7-1.6,1.6-1.6H113c0.9,0,1.6,0.7,1.6,1.6l0,0
			C114.7,272.3,114,273,113,273z"/>
	</g>
	<g>
		<path fill="#FFFFFF" d="M48.5,272.3c-0.1,0-0.2,0-0.3-0.1c-0.1-0.1-0.1-0.4,0-0.5l1.1-1.1l-1.1-1.1c-0.1-0.1-0.1-0.4,0-0.5
			c0.1-0.1,0.4-0.1,0.5,0l1.6,1.6l-1.6,1.6C48.7,272.3,48.6,272.3,48.5,272.3z"/>
	</g>
	<g>
		<linearGradient id="SVGID_5_" gradientUnits="userSpaceOnUse" x1="59.4857" y1="275.5746" x2="59.4103" y2="266.9074">
			<stop  offset="0" style="stop-color:#FF9800"/>
			<stop  offset="0.2455" style="stop-color:#FDAF1F"/>
			<stop  offset="0.5617" style="stop-color:#FBC740"/>
			<stop  offset="0.8246" style="stop-color:#F9D755"/>
			<stop  offset="1" style="stop-color:#F9DC5C"/>
		</linearGradient>
		<path fill="url(#SVGID_5_)" d="M63.5,274.5h-8.1c-0.4,0-0.7-0.3-0.7-0.7v-6.2c0-0.4,0.3-0.7,0.7-0.7H58c0.2,0,0.3,0.1,0.4,0.2
			l0.7,1h4.4c0.4,0,0.7,0.3,0.7,0.7v5C64.3,274.2,63.9,274.5,63.5,274.5z"/>
		<path fill="#F9DC5C" d="M63.5,268.1h-4.4l-0.7-1c-0.1-0.1-0.3-0.2-0.4-0.2h-2.6c-0.3,0-0.5,0.1-0.6,0.3c0.1-0.1,0.3-0.1,0.4-0.1
			h2.6c0.2,0,0.3,0.1,0.4,0.2l0.7,1h4.4c0.4,0,0.7,0.3,0.7,0.7v5c0,0.2,0,0.3-0.1,0.4c0.2-0.1,0.3-0.4,0.3-0.6v-5
			C64.3,268.4,63.9,268.1,63.5,268.1z"/>
		<path fill="#FF9800" d="M63.7,274.3h-8.1c-0.4,0-0.7-0.3-0.7-0.7v-6.2c0-0.2,0-0.3,0.1-0.4c-0.2,0.1-0.3,0.4-0.3,0.6v6.2
			c0,0.4,0.3,0.7,0.7,0.7h8.1c0.3,0,0.5-0.1,0.6-0.3C64,274.3,63.9,274.3,63.7,274.3z"/>
	</g>
	<g>
		<linearGradient id="SVGID_6_" gradientUnits="userSpaceOnUse" x1="77.436" y1="191.4466" x2="84.2091" y2="191.4466">
			<stop  offset="0" style="stop-color:#FF5D8F"/>
			<stop  offset="0.3973" style="stop-color:#FF7BA4"/>
			<stop  offset="0.7588" style="stop-color:#FF90B2"/>
			<stop  offset="1" style="stop-color:#FF97B7"/>
		</linearGradient>
		<path fill="url(#SVGID_6_)" d="M82.9,196.2h-4.1c-0.7,0-1.3-0.6-1.3-1.3v-6.2l2-2h3.5c0.7,0,1.3,0.6,1.3,1.3v6.9
			C84.2,195.6,83.6,196.2,82.9,196.2z"/>
		<path fill="#FF5D8F" d="M83.7,187c0.2,0.2,0.3,0.5,0.3,0.9v6.9c0,0.7-0.6,1.2-1.2,1.2h-4.2c-0.3,0-0.6-0.1-0.9-0.3
			c0.2,0.3,0.6,0.5,1,0.5h4.1c0.7,0,1.3-0.6,1.3-1.3V188C84.2,187.6,84,187.3,83.7,187z"/>
		<path fill="#FF97B7" d="M78.8,188.7h-1.3l2-2v1.3C79.4,188.4,79.1,188.7,78.8,188.7z"/>
		<path fill="#FFC1D4" d="M79.4,186.8v1.2c0,0.4-0.3,0.7-0.7,0.7h-1.2l-0.1,0.1h1.3c0.4,0,0.7-0.3,0.7-0.7L79.4,186.8L79.4,186.8z"
			/>
	</g>
	<g>
		<path fill="#FFFFFF" d="M107.1,208.7H92.3c-0.9,0-1.6-0.7-1.6-1.6l0,0c0-0.9,0.7-1.6,1.6-1.6h14.8c0.9,0,1.6,0.7,1.6,1.6l0,0
			C108.8,208,108,208.7,107.1,208.7z"/>
	</g>
	<g>
		<linearGradient id="SVGID_7_" gradientUnits="userSpaceOnUse" x1="77.436" y1="206.6553" x2="84.2091" y2="206.6553">
			<stop  offset="0" style="stop-color:#FF9800"/>
			<stop  offset="0.2455" style="stop-color:#FDAF1F"/>
			<stop  offset="0.5617" style="stop-color:#FBC740"/>
			<stop  offset="0.8246" style="stop-color:#F9D755"/>
			<stop  offset="1" style="stop-color:#F9DC5C"/>
		</linearGradient>
		<path fill="url(#SVGID_7_)" d="M82.9,211.4h-4.1c-0.7,0-1.3-0.6-1.3-1.3v-6.2l2-2h3.5c0.7,0,1.3,0.6,1.3,1.3v6.9
			C84.2,210.8,83.6,211.4,82.9,211.4z"/>
		<path fill="#FF9800" d="M83.7,202.2c0.2,0.2,0.3,0.5,0.3,0.9v6.9c0,0.7-0.6,1.2-1.2,1.2h-4.2c-0.3,0-0.6-0.1-0.9-0.3
			c0.2,0.3,0.6,0.5,1,0.5h4.1c0.7,0,1.3-0.6,1.3-1.3v-6.9C84.2,202.8,84,202.5,83.7,202.2z"/>
		<path fill="#F9DC5C" d="M78.8,203.9h-1.3l2-2v1.3C79.4,203.6,79.1,203.9,78.8,203.9z"/>
		<path fill="#FAE588" d="M79.4,202v1.2c0,0.4-0.3,0.7-0.7,0.7h-1.2l-0.1,0.1h1.3c0.4,0,0.7-0.3,0.7-0.7L79.4,202L79.4,202z"/>
	</g>
	<g>
		<path fill="#FFFFFF" d="M116.2,223.9H92.3c-0.9,0-1.6-0.7-1.6-1.6l0,0c0-0.9,0.7-1.6,1.6-1.6h23.9c0.9,0,1.6,0.7,1.6,1.6l0,0
			C117.9,223.2,117.1,223.9,116.2,223.9z"/>
	</g>
	<g>
		<linearGradient id="SVGID_8_" gradientUnits="userSpaceOnUse" x1="77.436" y1="221.864" x2="84.2091" y2="221.864">
			<stop  offset="0" style="stop-color:#FF9800"/>
			<stop  offset="0.2455" style="stop-color:#FDAF1F"/>
			<stop  offset="0.5617" style="stop-color:#FBC740"/>
			<stop  offset="0.8246" style="stop-color:#F9D755"/>
			<stop  offset="1" style="stop-color:#F9DC5C"/>
		</linearGradient>
		<path fill="url(#SVGID_8_)" d="M82.9,226.6h-4.1c-0.7,0-1.3-0.6-1.3-1.3v-6.2l2-2h3.5c0.7,0,1.3,0.6,1.3,1.3v6.9
			C84.2,226,83.6,226.6,82.9,226.6z"/>
		<path fill="#FF9800" d="M83.7,217.4c0.2,0.2,0.3,0.5,0.3,0.9v6.9c0,0.7-0.6,1.2-1.2,1.2h-4.2c-0.3,0-0.6-0.1-0.9-0.3
			c0.2,0.3,0.6,0.5,1,0.5h4.1c0.7,0,1.3-0.6,1.3-1.3v-6.9C84.2,218,84,217.7,83.7,217.4z"/>
		<path fill="#F9DC5C" d="M78.8,219.1h-1.3l2-2v1.3C79.4,218.8,79.1,219.1,78.8,219.1z"/>
		<path fill="#FAE588" d="M79.4,217.2v1.2c0,0.4-0.3,0.7-0.7,0.7h-1.2l-0.1,0.1h1.3c0.4,0,0.7-0.3,0.7-0.7L79.4,217.2L79.4,217.2z"
			/>
	</g>
	<g>
		<g>
			<image width="9" height="10" xlink:href="347CE93D.png"  transform="matrix(1 0 0 1 36.4154 134)">
			</image>
			<g>
				<linearGradient id="SVGID_9_" gradientUnits="userSpaceOnUse" x1="43.4672" y1="139.0199" x2="40.7715" y2="135.2492">
					<stop  offset="0" style="stop-color:#FF9800"/>
					<stop  offset="0.1877" style="stop-color:#FEB236"/>
					<stop  offset="0.3718" style="stop-color:#FDC863"/>
					<stop  offset="0.5473" style="stop-color:#FDD986"/>
					<stop  offset="0.7119" style="stop-color:#FCE59F"/>
					<stop  offset="0.8613" style="stop-color:#FCECAF"/>
					<stop  offset="0.9821" style="stop-color:#FCEFB4"/>
				</linearGradient>
				<circle fill="url(#SVGID_9_)" cx="42" cy="137" r="2.4"/>
			</g>
			<g>
				<circle fill="#F9DC5C" cx="42" cy="137" r="2.2"/>
			</g>
		</g>
		<g>
			<image width="9" height="10" xlink:href="347CE93E.png"  transform="matrix(1 0 0 1 45.4154 134)">
			</image>
			<g>
				<linearGradient id="SVGID_10_" gradientUnits="userSpaceOnUse" x1="53.0389" y1="139.0199" x2="50.3431" y2="135.2492">
					<stop  offset="0" style="stop-color:#57CC99"/>
					<stop  offset="0.1753" style="stop-color:#77D9A7"/>
					<stop  offset="0.4061" style="stop-color:#99E7B7"/>
					<stop  offset="0.6241" style="stop-color:#B2F1C3"/>
					<stop  offset="0.8221" style="stop-color:#C2F7CA"/>
					<stop  offset="0.9821" style="stop-color:#C7F9CC"/>
				</linearGradient>
				<circle fill="url(#SVGID_10_)" cx="51.6" cy="137" r="2.4"/>
			</g>
			<g>
				
					<ellipse transform="matrix(1.476651e-02 -0.9999 0.9999 1.476651e-02 -86.1601 186.6119)" fill="#80ED99" cx="51.6" cy="137" rx="2.2" ry="2.2"/>
			</g>
		</g>
		<g>
			<image width="9" height="10" xlink:href="347CE93C.png"  transform="matrix(1 0 0 1 55.4154 134)">
			</image>
			<g>
				<linearGradient id="SVGID_11_" gradientUnits="userSpaceOnUse" x1="62.6105" y1="139.0199" x2="59.9147" y2="135.2492">
					<stop  offset="0" style="stop-color:#B34164"/>
					<stop  offset="3.831372e-02" style="stop-color:#B84769"/>
					<stop  offset="0.3083" style="stop-color:#D7698B"/>
					<stop  offset="0.5633" style="stop-color:#ED83A3"/>
					<stop  offset="0.7948" style="stop-color:#FA92B2"/>
					<stop  offset="0.9821" style="stop-color:#FF97B7"/>
				</linearGradient>
				<circle fill="url(#SVGID_11_)" cx="61.2" cy="137" r="2.4"/>
			</g>
			<g>
				
					<ellipse transform="matrix(3.738121e-02 -0.9993 0.9993 3.738121e-02 -78.0327 193.0475)" fill="#FF5D8F" cx="61.2" cy="137" rx="2.2" ry="2.2"/>
			</g>
		</g>
	</g>
</g>
<g>
	<g>
		<path fill="#FBF9FF" d="M350.5,391.5l-96.7-0.1c-2.1,0-3.8-1.7-3.8-3.8l0-16.2c0-2.1,1.7-3.8,3.8-3.8l96.7,0.1
			c2.1,0,3.8,1.7,3.8,3.8l0,16.2C354.3,389.8,352.6,391.5,350.5,391.5z"/>
		<image width="105" height="25" xlink:href="347CE934.png"  transform="matrix(1 0 0 1 249.4154 367)">
		</image>
	</g>
	<g>
		<image width="18" height="17" xlink:href="347CE935.png"  transform="matrix(1 0 0 1 254.4154 374)">
		</image>
		<g>
			<linearGradient id="SVGID_12_" gradientUnits="userSpaceOnUse" x1="265.8026" y1="384.2633" x2="265.7365" y2="373.6429">
				<stop  offset="0" style="stop-color:#FF9800"/>
				<stop  offset="0.6326" style="stop-color:#FBC53D"/>
				<stop  offset="1" style="stop-color:#F9DC5C"/>
			</linearGradient>
			<path fill="url(#SVGID_12_)" d="M266.4,373.6l1.2,2.5c0.2,0.3,0.4,0.5,0.8,0.6l2.7,0.4c0.6,0.1,0.9,0.8,0.4,1.3l-2,1.9
				c-0.2,0.2-0.4,0.6-0.3,0.9l0.5,2.7c0.1,0.6-0.5,1.1-1.1,0.8l-2.4-1.3c-0.3-0.2-0.7-0.2-1,0l-2.4,1.3c-0.6,0.3-1.2-0.2-1.1-0.8
				l0.5-2.7c0.1-0.3-0.1-0.7-0.3-0.9l-2-1.9c-0.4-0.4-0.2-1.2,0.4-1.3l2.7-0.4c0.3,0,0.6-0.3,0.8-0.6l1.2-2.5
				C265.4,373.1,266.2,373.1,266.4,373.6z"/>
			<image width="7" height="6" xlink:href="347CE932.png"  transform="matrix(1 0 0 1 259.4154 373)">
			</image>
			<image width="7" height="6" xlink:href="347CE933.png"  transform="matrix(1 0 0 1 265.4154 373)">
			</image>
			<image width="5" height="8" xlink:href="347CE949.png"  transform="matrix(1 0 0 1 259.4154 377)">
			</image>
			<image width="5" height="8" xlink:href="347CE94A.png"  transform="matrix(1 0 0 1 267.4154 377)">
			</image>
		</g>
	</g>
	<g>
		<image width="17" height="17" xlink:href="960DB57C.png"  transform="matrix(1 0 0 1 273.4154 374)">
		</image>
		<g>
			<linearGradient id="SVGID_13_" gradientUnits="userSpaceOnUse" x1="283.8289" y1="384.2469" x2="283.7627" y2="373.6266">
				<stop  offset="0" style="stop-color:#FF9800"/>
				<stop  offset="0.6326" style="stop-color:#FBC53D"/>
				<stop  offset="1" style="stop-color:#F9DC5C"/>
			</linearGradient>
			<path fill="url(#SVGID_13_)" d="M284.5,373.6l1.2,2.5c0.1,0.3,0.4,0.5,0.8,0.6l2.7,0.4c0.6,0.1,0.9,0.8,0.4,1.3l-2,1.9
				c-0.2,0.2-0.4,0.6-0.3,0.9l0.5,2.7c0.1,0.6-0.5,1.1-1.1,0.8l-2.4-1.3c-0.3-0.2-0.7-0.2-1,0l-2.4,1.3c-0.6,0.3-1.2-0.2-1.1-0.8
				l0.5-2.7c0.1-0.3-0.1-0.7-0.3-0.9l-2-1.9c-0.4-0.4-0.2-1.2,0.4-1.3l2.7-0.4c0.3,0,0.6-0.3,0.8-0.6l1.2-2.5
				C283.4,373.1,284.2,373.1,284.5,373.6z"/>
			<image width="7" height="6" xlink:href="960DB57E.png"  transform="matrix(1 0 0 1 277.4154 373)">
			</image>
			<image width="7" height="6" xlink:href="960DB57B.png"  transform="matrix(1 0 0 1 283.4154 373)">
			</image>
			<image width="5" height="8" xlink:href="960DB564.png"  transform="matrix(1 0 0 1 277.4154 377)">
			</image>
			<image width="5" height="8" xlink:href="960DB569.png"  transform="matrix(1 0 0 1 285.4154 377)">
			</image>
		</g>
	</g>
	<g>
		<image width="17" height="17" xlink:href="960DB56A.png"  transform="matrix(1 0 0 1 291.4154 374)">
		</image>
		<g>
			<linearGradient id="SVGID_14_" gradientUnits="userSpaceOnUse" x1="301.8552" y1="384.2306" x2="301.789" y2="373.6102">
				<stop  offset="0" style="stop-color:#FF9800"/>
				<stop  offset="0.6326" style="stop-color:#FBC53D"/>
				<stop  offset="1" style="stop-color:#F9DC5C"/>
			</linearGradient>
			<path fill="url(#SVGID_14_)" d="M302.5,373.6l1.2,2.5c0.2,0.3,0.4,0.5,0.8,0.6l2.7,0.4c0.6,0.1,0.9,0.8,0.4,1.3l-2,1.9
				c-0.2,0.2-0.4,0.6-0.3,0.9l0.5,2.7c0.1,0.6-0.5,1.1-1.1,0.8l-2.4-1.3c-0.3-0.2-0.7-0.2-1,0l-2.4,1.3c-0.6,0.3-1.2-0.2-1.1-0.8
				l0.5-2.7c0.1-0.3-0.1-0.7-0.3-0.9l-2-1.9c-0.4-0.4-0.2-1.2,0.4-1.3l2.7-0.4c0.3,0,0.6-0.3,0.8-0.6l1.2-2.5
				C301.4,373,302.2,373,302.5,373.6z"/>
			<image width="7" height="6" xlink:href="960DB56B.png"  transform="matrix(1 0 0 1 295.4154 373)">
			</image>
			<image width="7" height="6" xlink:href="960DB56C.png"  transform="matrix(1 0 0 1 301.4154 373)">
			</image>
			<image width="5" height="8" xlink:href="960DB56D.png"  transform="matrix(1 0 0 1 295.4154 377)">
			</image>
			<image width="5" height="8" xlink:href="960DB56F.png"  transform="matrix(1 0 0 1 303.4154 377)">
			</image>
		</g>
	</g>
	<g>
		<image width="17" height="17" xlink:href="960DB58A.png"  transform="matrix(1 0 0 1 309.4154 374)">
		</image>
		<g>
			<linearGradient id="SVGID_15_" gradientUnits="userSpaceOnUse" x1="319.8815" y1="384.2142" x2="319.8153" y2="373.5939">
				<stop  offset="0" style="stop-color:#FF9800"/>
				<stop  offset="0.6326" style="stop-color:#FBC53D"/>
				<stop  offset="1" style="stop-color:#F9DC5C"/>
			</linearGradient>
			<path fill="url(#SVGID_15_)" d="M320.5,373.6l1.2,2.5c0.2,0.3,0.4,0.5,0.8,0.6l2.7,0.4c0.6,0.1,0.9,0.8,0.4,1.3l-2,1.9
				c-0.2,0.2-0.4,0.6-0.3,0.9l0.5,2.7c0.1,0.6-0.5,1.1-1.1,0.8l-2.4-1.3c-0.3-0.2-0.7-0.2-1,0l-2.4,1.3c-0.6,0.3-1.2-0.2-1.1-0.8
				l0.5-2.7c0.1-0.3-0.1-0.7-0.3-0.9l-2-1.9c-0.4-0.4-0.2-1.2,0.4-1.3l2.7-0.4c0.3,0,0.6-0.3,0.8-0.6l1.2-2.5
				C319.4,373,320.2,373,320.5,373.6z"/>
			<image width="7" height="6" xlink:href="960DB58B.png"  transform="matrix(1 0 0 1 313.4154 373)">
			</image>
			<image width="7" height="6" xlink:href="960DB58F.png"  transform="matrix(1 0 0 1 319.4154 373)">
			</image>
			<image width="5" height="8" xlink:href="960DB589.png"  transform="matrix(1 0 0 1 313.4154 377)">
			</image>
			<image width="5" height="8" xlink:href="960DB588.png"  transform="matrix(1 0 0 1 321.4154 377)">
			</image>
		</g>
	</g>
	<g>
		<image width="17" height="17" xlink:href="960DB5B7.png"  transform="matrix(1 0 0 1 327.4154 374)">
		</image>
		<g>
			<linearGradient id="SVGID_16_" gradientUnits="userSpaceOnUse" x1="337.9077" y1="384.1979" x2="337.8416" y2="373.5775">
				<stop  offset="0" style="stop-color:#FF9800"/>
				<stop  offset="0.6326" style="stop-color:#FBC53D"/>
				<stop  offset="1" style="stop-color:#F9DC5C"/>
			</linearGradient>
			<path fill="url(#SVGID_16_)" d="M338.5,373.6l1.2,2.5c0.2,0.3,0.4,0.5,0.8,0.6l2.7,0.4c0.6,0.1,0.9,0.8,0.4,1.3l-2,1.9
				c-0.2,0.2-0.4,0.6-0.3,0.9l0.5,2.7c0.1,0.6-0.5,1.1-1.1,0.8l-2.4-1.3c-0.3-0.2-0.7-0.2-1,0l-2.4,1.3c-0.6,0.3-1.2-0.2-1.1-0.8
				l0.5-2.7c0.1-0.3-0.1-0.7-0.3-0.9l-2-1.9c-0.4-0.4-0.2-1.2,0.4-1.3l2.7-0.4c0.3,0,0.6-0.3,0.8-0.6l1.2-2.5
				C337.5,373,338.3,373,338.5,373.6z"/>
			<image width="7" height="6" xlink:href="960DB5B8.png"  transform="matrix(1 0 0 1 331.4154 373)">
			</image>
			<image width="7" height="6" xlink:href="960DB5B9.png"  transform="matrix(1 0 0 1 337.4154 373)">
			</image>
			<image width="5" height="8" xlink:href="960DB5BA.png"  transform="matrix(1 0 0 1 331.4154 377)">
			</image>
			<image width="5" height="8" xlink:href="960DB5BF.png"  transform="matrix(1 0 0 1 339.4154 377)">
			</image>
		</g>
	</g>
</g>
<image width="68" height="72" xlink:href="960DB5A8.png"  transform="matrix(1 0 0 1 79.4154 69)">
</image>
<g>
	
		<image width="62" height="62" id="XMLID_00000183245581048130587010000013762671867881506187_" xlink:href="960DB59C.png"  transform="matrix(1 0 0 1 67.4154 56)">
	</image>
	<path fill="#F4777C" d="M127.2,102.6c-0.3-1.7-0.2-3.5,0.4-5.2c1.3-3.5,1.9-7.4,1.7-11.4c-0.7-16.3-14.2-29.3-30.5-29.3
		c-12.1,0-22.5,7-27.4,17.2c5.1-9.8,15.3-16.6,27.1-16.6c16.3,0,29.9,13,30.5,29.3c0.2,4-0.5,7.9-1.7,11.4c-0.6,1.7-0.7,3.5-0.4,5.2
		l1.5,7.9c0.1,0.7,0,1.4-0.2,2c0.5-0.7,0.7-1.7,0.5-2.6L127.2,102.6z"/>
	<image width="61" height="60" xlink:href="960DB59D.png"  transform="matrix(1 0 0 1 67.4154 58)">
	</image>
	<image width="48" height="40" xlink:href="960DB59E.png"  transform="matrix(1 0 0 1 81.4154 56)">
	</image>
	<g>
		<path id="XMLID_00000107571780878541507800000016340511832711807885_" fill="#FDE8E9" d="M109.1,90.4l-12.9,7.5
			c-1.5,0.9-3.4-0.2-3.4-1.9V81c0-1.7,1.9-2.8,3.4-1.9l12.9,7.5C110.6,87.3,110.6,89.5,109.1,90.4l-12.9,7.5
			c-1.5,0.9-3.4-0.2-3.4-1.9V81c0-1.7,1.9-2.8,3.4-1.9l12.9,7.5C110.6,87.3,110.6,89.5,109.1,90.4z"/>
		<path fill="#B2151B" d="M110,88.6l-14.1,8.2c-1,0.6-2.2-0.1-2.2-1.3v-1.5V79.2c0,0,0,0,0-0.1c-0.6,0.4-0.9,1-0.9,1.8v14.9
			c0,1.7,1.9,2.8,3.4,1.9l12.9-7.5c0.7-0.4,1.1-1.1,1.1-1.9C110.1,88.5,110.1,88.6,110,88.6z"/>
		<path fill="#FFFFFF" d="M109.1,86.5L96.2,79c-0.8-0.5-1.8-0.4-2.4,0.1c0.6-0.2,1.2-0.1,1.8,0.2l12.9,7.5c0.5,0.3,0.9,0.8,1,1.3
			c0.3,0.9,1,0.6,0.6-0.4C109.9,87.2,109.6,86.8,109.1,86.5z"/>
		<image width="24" height="24" xlink:href="960DB593.png"  transform="matrix(1 0 0 1 88.4154 78)">
		</image>
	</g>
</g>
<image width="35" height="51" xlink:href="960DB594.png"  transform="matrix(1 0 0 1 110.4154 244)">
</image>
<g>
	<path fill="#F9DC5C" d="M97.5,384.6H39.1c-8.6,0-15.6-7-15.6-15.6v-45.4c0-8.6,7-15.6,15.6-15.6h58.4c8.6,0,15.6,7,15.6,15.6v45.4
		C113.1,377.7,106.1,384.6,97.5,384.6z"/>
	<image width="89" height="76" xlink:href="960DB595.png"  transform="matrix(1 0 0 1 23.4154 308)">
	</image>
	<image width="89" height="76" xlink:href="960DB592.png"  transform="matrix(1 0 0 1 24.4154 309)">
	</image>
	
		<ellipse transform="matrix(0.2298 -0.9732 0.9732 0.2298 -249.0148 337.3178)" fill="#FFFFFF" cx="88.6" cy="326" rx="8.2" ry="8.2"/>
	<path fill="#FFFFFF" d="M99.6,365.9l-17.7-28.8c-0.5-1-2-1-2.5,0L72,349l-12.2-19.9c-0.6-1.3-2.5-1.3-3.2,0l-22.3,36.2
		c-0.6,1.2,0.3,2.5,1.6,2.5h27h17.5h17.9C99.3,367.9,100,366.8,99.6,365.9z"/>
	<g>
		<path fill="#FEF9E1" d="M59.1,328.8l12.7,20.6L72,349l-12.2-19.9c-0.2-0.5-0.7-0.8-1.1-0.9C58.8,328.4,59,328.6,59.1,328.8z"/>
		<path fill="#FEF9E1" d="M99.6,365.9l-17.7-28.8c-0.2-0.4-0.6-0.7-1-0.8c0.1,0.1,0.2,0.3,0.3,0.4l17.7,28.8c0.8,1.2,0.2,2.1-1.3,2
			H79.8H62.2h-27c-0.2,0-0.3,0-0.4-0.1c0.3,0.2,0.7,0.4,1.1,0.4h27h17.5h17.9C99.3,367.9,100,366.8,99.6,365.9z"/>
	</g>
</g>
<g>
	<g>
		<path fill="#7371FC" d="M65.2,274H20.7c-6.8,0-12.2-5.5-12.2-12.2v-34.5c0-6.8,5.5-12.2,12.2-12.2h44.5c6.8,0,12.2,5.5,12.2,12.2
			v34.5C77.4,268.6,71.9,274,65.2,274z"/>
		<image width="68" height="59" xlink:href="960DB591.png"  transform="matrix(1 0 0 1 8.4154 215)">
		</image>
		<image width="68" height="59" xlink:href="960DB5E8.png"  transform="matrix(1 0 0 1 9.4154 216)">
		</image>
	</g>
	<g>
		<path id="XMLID_00000008836834663145737140000004090285608897451167_" fill="#FFFFFF" d="M29.5,234.5c-1.1,0-1.7,0.5-1.7,1.6v5.9
			c0,1.3-0.6,2-1.8,2.2c1.2,0.2,1.8,0.9,1.8,2.2v6.4c0,0.5,0.1,0.8,0.4,1c0.3,0.2,0.8,0.3,1.5,0.3v2.5h-0.9c-2.5,0-3.7-1.2-3.7-3.6
			v-5.9c0-0.6-0.1-1-0.3-1.3c-0.2-0.2-0.6-0.4-1-0.4H23V243h0.7c0.5,0,0.8-0.1,1-0.4c0.2-0.3,0.3-0.7,0.3-1.3v-5.7
			c0-2.4,1.2-3.6,3.7-3.6h0.9v2.5C29.6,234.5,29.6,234.5,29.5,234.5z M33.5,252.3c-0.4-0.4-0.6-0.9-0.6-1.5c0-0.6,0.2-1,0.6-1.4
			c0.4-0.4,0.9-0.6,1.4-0.6c0.6,0,1.1,0.2,1.5,0.6c0.4,0.4,0.6,0.9,0.6,1.4c0,0.6-0.2,1.1-0.6,1.5c-0.4,0.4-0.9,0.6-1.5,0.6
			C34.4,252.9,33.9,252.7,33.5,252.3z M41.2,252.3c-0.4-0.4-0.6-0.9-0.6-1.5c0-0.6,0.2-1,0.6-1.4c0.4-0.4,0.9-0.6,1.4-0.6
			c0.6,0,1.1,0.2,1.5,0.6c0.4,0.4,0.6,0.9,0.6,1.4c0,0.6-0.2,1.1-0.6,1.5c-0.4,0.4-0.9,0.6-1.5,0.6
			C42.1,252.9,41.6,252.7,41.2,252.3z M48.9,252.3c-0.4-0.4-0.6-0.9-0.6-1.5c0-0.6,0.2-1,0.6-1.4c0.4-0.4,0.9-0.6,1.4-0.6
			c0.6,0,1.1,0.2,1.5,0.6c0.4,0.4,0.6,0.9,0.6,1.4c0,0.6-0.2,1.1-0.6,1.5c-0.4,0.4-0.9,0.6-1.5,0.6
			C49.7,252.9,49.3,252.7,48.9,252.3z M57.1,256.7h-0.9v-2.5c0.7,0,1.3-0.1,1.5-0.3c0.3-0.2,0.4-0.5,0.4-1v-6.4c0-1.3,0.6-2,1.8-2.2
			c-1.2-0.2-1.8-1-1.8-2.2V236c0-0.6-0.2-1-0.5-1.2c-0.3-0.2-0.6-0.4-0.9-0.4h-0.1l-0.5,0.1V232h0.9c2.5,0,3.7,1.2,3.7,3.6v5.7
			c0,0.6,0.1,1.1,0.3,1.3c0.2,0.3,0.6,0.4,1,0.4h0.7v2.5h-0.7c-0.5,0-0.8,0.1-1,0.4c-0.2,0.2-0.3,0.7-0.3,1.3v5.9
			C60.8,255.5,59.5,256.7,57.1,256.7z"/>
		<g>
			<path fill="#C7C6FE" d="M23.3,243.2c0.4,0,0.7-0.1,0.9-0.3c-0.2,0-0.3,0.1-0.5,0.1H23v0.2H23.3z"/>
			<path fill="#C7C6FE" d="M27.8,252.9v-6.4c0-1.2-0.5-1.9-1.6-2.2c-0.2,0.1-0.4,0.1-0.6,0.2c1.2,0.2,1.8,0.9,1.8,2.2v6.4
				c0,0.5,0.1,0.8,0.4,1c0.3,0.2,0.8,0.3,1.5,0.3v2.4h0.4v-2.5c-0.7,0-1.3-0.1-1.5-0.3C27.9,253.7,27.8,253.4,27.8,252.9z"/>
			<path fill="#C7C6FE" d="M27.8,242V236c0-0.6,0.2-1,0.5-1.3c-0.6,0.2-0.9,0.7-0.9,1.4v5.9c0,0.9-0.3,1.5-0.9,1.9
				C27.3,243.8,27.8,243.1,27.8,242z"/>
			<path fill="#C7C6FE" d="M57.3,254.1C57.3,254.1,57.3,254,57.3,254.1c-0.2,0-0.6,0.1-1.1,0.1v0.2
				C56.7,254.3,57.1,254.2,57.3,254.1z"/>
			<path fill="#C7C6FE" d="M59.5,244.4c-0.1,0-0.1,0-0.2,0c-0.1,0.1-0.3,0.1-0.4,0.2C59.1,244.5,59.3,244.5,59.5,244.4z"/>
			<path fill="#C7C6FE" d="M42.6,248.8c-0.4,0-0.8,0.1-1.1,0.3c0.2-0.1,0.5-0.1,0.7-0.1c0.6,0,1.1,0.2,1.5,0.6
				c0.4,0.4,0.6,0.9,0.6,1.4c0,0.6-0.2,1.1-0.6,1.5c-0.1,0.1-0.2,0.2-0.4,0.3c0.3-0.1,0.5-0.3,0.7-0.5c0.4-0.4,0.6-0.9,0.6-1.5
				c0-0.6-0.2-1-0.6-1.4C43.7,249,43.2,248.8,42.6,248.8z"/>
			<path fill="#C7C6FE" d="M60.7,246.1c-0.2,0.2-0.3,0.7-0.3,1.3v5.9c0,1.5-0.5,2.5-1.4,3.1c1.2-0.5,1.8-1.6,1.8-3.3v-5.9
				c0-0.6,0.1-1,0.3-1.3c0,0,0.1-0.1,0.1-0.1C61,245.8,60.9,245.9,60.7,246.1z"/>
			<path fill="#C7C6FE" d="M62.2,243c-0.5,0-0.8-0.1-1-0.4c-0.2-0.3-0.3-0.7-0.3-1.3v-5.7c0-2.4-1.2-3.6-3.7-3.6h-0.9v0.2h0.5
				c2.5,0,3.7,1.2,3.7,3.6v5.7c0,0.6,0.1,1.1,0.3,1.3c0.2,0.3,0.6,0.4,1,0.4h0.7v2.4h0.4V243H62.2z"/>
			<path fill="#C7C6FE" d="M35,248.8c-0.4,0-0.8,0.1-1.1,0.3c0.2-0.1,0.5-0.1,0.7-0.1c0.6,0,1.1,0.2,1.5,0.6
				c0.4,0.4,0.6,0.9,0.6,1.4c0,0.6-0.2,1.1-0.6,1.5c-0.1,0.1-0.2,0.2-0.4,0.3c0.3-0.1,0.5-0.3,0.7-0.5c0.4-0.4,0.6-0.9,0.6-1.5
				c0-0.6-0.2-1-0.6-1.4C36,249,35.5,248.8,35,248.8z"/>
			<path fill="#C7C6FE" d="M26.5,232.5c0.5-0.2,1.2-0.3,1.9-0.3h0.9v2.3c0.1,0,0.1,0,0.2,0c0.1,0,0.2,0,0.2,0V232h-0.9
				C27.8,232,27.1,232.1,26.5,232.5z"/>
			<path fill="#C7C6FE" d="M50.3,248.8c-0.4,0-0.8,0.1-1.1,0.3c0.2-0.1,0.5-0.1,0.7-0.1c0.6,0,1.1,0.2,1.5,0.6
				c0.4,0.4,0.6,0.9,0.6,1.4c0,0.6-0.2,1.1-0.6,1.5c-0.1,0.1-0.2,0.2-0.4,0.3c0.3-0.1,0.5-0.3,0.7-0.5c0.4-0.4,0.6-0.9,0.6-1.5
				c0-0.6-0.2-1-0.6-1.4C51.4,249,50.9,248.8,50.3,248.8z"/>
		</g>
		<g>
			<path fill="#5655BD" d="M29.7,234.1c-0.9,0-1.4,0.3-1.6,0.9c0.3-0.4,0.7-0.6,1.4-0.6c0.1,0,0.2,0,0.2,0L29.7,234.1
				C29.7,234.1,29.7,234.1,29.7,234.1z"/>
			<path fill="#5655BD" d="M25.2,240.9v-5.7c0-0.7,0.1-1.3,0.3-1.8c-0.3,0.6-0.5,1.3-0.5,2.2v5.7c0,0.4,0,0.7-0.1,0.9
				C25.1,241.9,25.2,241.5,25.2,240.9z"/>
			<path fill="#5655BD" d="M56.7,234.4c0.3,0,0.6,0.1,0.9,0.4c0.3,0.2,0.5,0.7,0.5,1.2v5.9c0,1.1,0.4,1.8,1.3,2.1
				c0.2-0.1,0.5-0.2,0.7-0.2c-1.2-0.2-1.8-1-1.8-2.2v-5.9c0-0.6-0.2-1-0.5-1.2c-0.3-0.2-0.6-0.4-0.9-0.4h-0.1l-0.5,0.1V232h-0.2v2.5
				L56.7,234.4L56.7,234.4z"/>
			<path fill="#5655BD" d="M58,252.9c0,0.2,0,0.3-0.1,0.5c0.2-0.2,0.2-0.5,0.2-0.8v-6.4c0-0.4,0.1-0.7,0.2-1
				c-0.2,0.4-0.4,0.8-0.4,1.4V252.9z"/>
			<path fill="#5655BD" d="M29,256.3c-2.5,0-3.7-1.2-3.7-3.6v-5.9c0-0.6-0.1-1-0.3-1.3c-0.2-0.2-0.6-0.4-1-0.4h-0.7V243H23v2.5h0.7
				c0.5,0,0.8,0.1,1,0.4c0.2,0.2,0.3,0.7,0.3,1.3v5.9c0,2.4,1.2,3.6,3.7,3.6h0.9v-0.4H29z"/>
			<path fill="#5655BD" d="M27.6,243c-0.3,0.5-0.8,0.7-1.5,0.9c0.2,0,0.4,0.1,0.5,0.1C27.1,243.8,27.4,243.4,27.6,243z"/>
			<path fill="#5655BD" d="M57.3,256.3h-0.9v-2.2c-0.1,0-0.1,0-0.2,0v2.5h0.9c1.8,0,2.9-0.6,3.4-1.8
				C59.9,255.8,58.8,256.3,57.3,256.3z"/>
			<path fill="#5655BD" d="M62.4,245.1c-0.5,0-0.8,0.1-1,0.4c-0.1,0.1-0.2,0.2-0.2,0.4c0,0,0,0,0,0c0.2-0.2,0.6-0.4,1-0.4h0.7v-0.4
				H62.4z"/>
			<path fill="#5655BD" d="M44.3,251.9c-0.4,0.4-0.9,0.6-1.5,0.6c-0.6,0-1-0.2-1.4-0.6c-0.4-0.4-0.6-0.9-0.6-1.5
				c0-0.3,0-0.5,0.1-0.7c-0.2,0.3-0.3,0.7-0.3,1.1c0,0.6,0.2,1.1,0.6,1.5c0.4,0.4,0.9,0.6,1.4,0.6c0.6,0,1.1-0.2,1.5-0.6
				c0.2-0.2,0.4-0.5,0.5-0.7C44.5,251.7,44.4,251.8,44.3,251.9z"/>
			<path fill="#5655BD" d="M51.9,251.9c-0.4,0.4-0.9,0.6-1.5,0.6c-0.6,0-1-0.2-1.4-0.6c-0.4-0.4-0.6-0.9-0.6-1.5
				c0-0.3,0-0.5,0.1-0.7c-0.2,0.3-0.3,0.7-0.3,1.1c0,0.6,0.2,1.1,0.6,1.5c0.4,0.4,0.9,0.6,1.4,0.6c0.6,0,1.1-0.2,1.5-0.6
				c0.2-0.2,0.4-0.5,0.5-0.7C52.2,251.7,52.1,251.8,51.9,251.9z"/>
			<path fill="#5655BD" d="M36.6,251.9c-0.4,0.4-0.9,0.6-1.5,0.6c-0.6,0-1-0.2-1.4-0.6c-0.4-0.4-0.6-0.9-0.6-1.5
				c0-0.3,0-0.5,0.1-0.7c-0.2,0.3-0.3,0.7-0.3,1.1c0,0.6,0.2,1.1,0.6,1.5c0.4,0.4,0.9,0.6,1.4,0.6c0.6,0,1.1-0.2,1.5-0.6
				c0.2-0.2,0.4-0.5,0.5-0.7C36.8,251.7,36.7,251.8,36.6,251.9z"/>
		</g>
	</g>
</g>
<g>
	<path fill="#373F51" d="M328.4,292.4h-89c-8.7,0-15.8-7.1-15.8-15.8V134.9c0-8.7,7.1-15.8,15.8-15.8h89c8.7,0,15.8,7.1,15.8,15.8
		v141.6C344.2,285.3,337.1,292.4,328.4,292.4z"/>
	<path fill="#292F3D" d="M329,291.7h-88.9c-8.8,0-15.9-7.1-15.9-15.9V134.3c0-4.2,1.6-8,4.3-10.9c-3.1,2.9-5,7-5,11.5v141.5
		c0,8.8,7.1,15.9,15.9,15.9h88.9c4.6,0,8.7-1.9,11.5-5C337,290.1,333.2,291.7,329,291.7z"/>
	<path fill="#4B5262" d="M328.5,119.1h-89.2c-8.7,0-15.7,7-15.7,15.7v2h120.6v-2C344.2,126.2,337.2,119.1,328.5,119.1z"/>
	<path fill="#5F6574" d="M328.3,119.1h-88.9c-3.8,0-7.2,1.3-10,3.5c2.6-1.8,5.7-2.9,9.1-2.9h88.9c8.8,0,15.9,7.1,15.9,15.9v141.5
		c0,5-2.3,9.5-5.9,12.4c4.1-2.9,6.8-7.6,6.8-13V135C344.2,126.2,337.1,119.1,328.3,119.1z"/>
	<g>
		<g>
			<image width="8" height="8" xlink:href="960DB5F6.png"  transform="matrix(1 0 0 1 231.4154 127)">
			</image>
			<g>
				<linearGradient id="SVGID_17_" gradientUnits="userSpaceOnUse" x1="237.6566" y1="130.7431" x2="235.4886" y2="127.7108">
					<stop  offset="0" style="stop-color:#FF9800"/>
					<stop  offset="0.1877" style="stop-color:#FEB236"/>
					<stop  offset="0.3718" style="stop-color:#FDC863"/>
					<stop  offset="0.5473" style="stop-color:#FDD986"/>
					<stop  offset="0.7119" style="stop-color:#FCE59F"/>
					<stop  offset="0.8613" style="stop-color:#FCECAF"/>
					<stop  offset="0.9821" style="stop-color:#FCEFB4"/>
				</linearGradient>
				<circle fill="url(#SVGID_17_)" cx="236.5" cy="129.1" r="1.9"/>
			</g>
			<g>
				<circle fill="#F9DC5C" cx="236.5" cy="129.1" r="1.8"/>
			</g>
		</g>
		<g>
			<image width="7" height="8" xlink:href="960DB5F1.png"  transform="matrix(1 0 0 1 239.4154 127)">
			</image>
			<g>
				<linearGradient id="SVGID_18_" gradientUnits="userSpaceOnUse" x1="245.354" y1="130.7431" x2="243.1861" y2="127.7108">
					<stop  offset="0" style="stop-color:#57CC99"/>
					<stop  offset="0.1753" style="stop-color:#77D9A7"/>
					<stop  offset="0.4061" style="stop-color:#99E7B7"/>
					<stop  offset="0.6241" style="stop-color:#B2F1C3"/>
					<stop  offset="0.8221" style="stop-color:#C2F7CA"/>
					<stop  offset="0.9821" style="stop-color:#C7F9CC"/>
				</linearGradient>
				<circle fill="url(#SVGID_18_)" cx="244.2" cy="129.1" r="1.9"/>
			</g>
			<g>
				<circle fill="#80ED99" cx="244.2" cy="129.1" r="1.8"/>
			</g>
		</g>
		<g>
			<image width="7" height="8" xlink:href="960DB5F2.png"  transform="matrix(1 0 0 1 247.4154 127)">
			</image>
			<g>
				<linearGradient id="SVGID_19_" gradientUnits="userSpaceOnUse" x1="253.0515" y1="130.7431" x2="250.8836" y2="127.7108">
					<stop  offset="0" style="stop-color:#B34164"/>
					<stop  offset="3.831372e-02" style="stop-color:#B84769"/>
					<stop  offset="0.3083" style="stop-color:#D7698B"/>
					<stop  offset="0.5633" style="stop-color:#ED83A3"/>
					<stop  offset="0.7948" style="stop-color:#FA92B2"/>
					<stop  offset="0.9821" style="stop-color:#FF97B7"/>
				</linearGradient>
				<circle fill="url(#SVGID_19_)" cx="251.9" cy="129.1" r="1.9"/>
			</g>
			<g>
				<circle fill="#FF5D8F" cx="251.9" cy="129.1" r="1.8"/>
			</g>
		</g>
	</g>
	<g>
		<path fill="#FFFFFF" d="M237.4,155.7h-1.5c-0.9,0-1.7-0.8-1.7-1.7l0,0c0-0.9,0.8-1.7,1.7-1.7h1.5c0.9,0,1.7,0.8,1.7,1.7l0,0
			C239,154.9,238.3,155.7,237.4,155.7z"/>
		<path fill="#FFFFFF" d="M237.4,164.3h-1.5c-0.9,0-1.7-0.8-1.7-1.7l0,0c0-0.9,0.8-1.7,1.7-1.7h1.5c0.9,0,1.7,0.8,1.7,1.7l0,0
			C239,163.5,238.3,164.3,237.4,164.3z"/>
		<path fill="#FFFFFF" d="M237.4,172.8h-1.5c-0.9,0-1.7-0.8-1.7-1.7l0,0c0-0.9,0.8-1.7,1.7-1.7h1.5c0.9,0,1.7,0.8,1.7,1.7l0,0
			C239,172.1,238.3,172.8,237.4,172.8z"/>
		<path fill="#FFFFFF" d="M237.4,181.4h-1.5c-0.9,0-1.7-0.8-1.7-1.7l0,0c0-0.9,0.8-1.7,1.7-1.7h1.5c0.9,0,1.7,0.8,1.7,1.7l0,0
			C239,180.6,238.3,181.4,237.4,181.4z"/>
		<path fill="#FFFFFF" d="M237.4,190h-1.5c-0.9,0-1.7-0.8-1.7-1.7l0,0c0-0.9,0.8-1.7,1.7-1.7h1.5c0.9,0,1.7,0.8,1.7,1.7l0,0
			C239,189.2,238.3,190,237.4,190z"/>
		<path fill="#FFFFFF" d="M237.4,198.5h-1.5c-0.9,0-1.7-0.8-1.7-1.7l0,0c0-0.9,0.8-1.7,1.7-1.7h1.5c0.9,0,1.7,0.8,1.7,1.7l0,0
			C239,197.8,238.3,198.5,237.4,198.5z"/>
		<path fill="#FFFFFF" d="M237.4,207.1h-1.5c-0.9,0-1.7-0.8-1.7-1.7l0,0c0-0.9,0.8-1.7,1.7-1.7h1.5c0.9,0,1.7,0.8,1.7,1.7l0,0
			C239,206.4,238.3,207.1,237.4,207.1z"/>
		<path fill="#FFFFFF" d="M329.6,155.7h-1.5c-0.9,0-1.7-0.8-1.7-1.7l0,0c0-0.9,0.8-1.7,1.7-1.7h1.5c0.9,0,1.7,0.8,1.7,1.7l0,0
			C331.3,154.9,330.6,155.7,329.6,155.7z"/>
		<path fill="#FF97B7" d="M329.6,164.3h-1.5c-0.9,0-1.7-0.8-1.7-1.7l0,0c0-0.9,0.8-1.7,1.7-1.7h1.5c0.9,0,1.7,0.8,1.7,1.7l0,0
			C331.3,163.5,330.6,164.3,329.6,164.3z"/>
		<path fill="#F9DC5C" d="M329.6,172.8h-1.5c-0.9,0-1.7-0.8-1.7-1.7l0,0c0-0.9,0.8-1.7,1.7-1.7h1.5c0.9,0,1.7,0.8,1.7,1.7l0,0
			C331.3,172.1,330.6,172.8,329.6,172.8z"/>
		<path fill="#FF97B7" d="M329.6,181.4h-1.5c-0.9,0-1.7-0.8-1.7-1.7l0,0c0-0.9,0.8-1.7,1.7-1.7h1.5c0.9,0,1.7,0.8,1.7,1.7l0,0
			C331.3,180.6,330.6,181.4,329.6,181.4z"/>
		<path fill="#F9DC5C" d="M329.6,190h-1.5c-0.9,0-1.7-0.8-1.7-1.7l0,0c0-0.9,0.8-1.7,1.7-1.7h1.5c0.9,0,1.7,0.8,1.7,1.7l0,0
			C331.3,189.2,330.6,190,329.6,190z"/>
		<path fill="#FF97B7" d="M329.6,198.5h-1.5c-0.9,0-1.7-0.8-1.7-1.7l0,0c0-0.9,0.8-1.7,1.7-1.7h1.5c0.9,0,1.7,0.8,1.7,1.7l0,0
			C331.3,197.8,330.6,198.5,329.6,198.5z"/>
		<path fill="#FFFFFF" d="M329.6,207.1h-1.5c-0.9,0-1.7-0.8-1.7-1.7l0,0c0-0.9,0.8-1.7,1.7-1.7h1.5c0.9,0,1.7,0.8,1.7,1.7l0,0
			C331.3,206.4,330.6,207.1,329.6,207.1z"/>
		<path fill="#FFFFFF" d="M265.6,155.7h-21.8c-0.9,0-1.7-0.8-1.7-1.7l0,0c0-0.9,0.8-1.7,1.7-1.7h21.8c0.9,0,1.7,0.8,1.7,1.7l0,0
			C267.3,154.9,266.5,155.7,265.6,155.7z"/>
		<path fill="#FFFFFF" d="M318,155.7h-37c-0.9,0-1.7-0.8-1.7-1.7l0,0c0-0.9,0.8-1.7,1.7-1.7h37c0.9,0,1.7,0.8,1.7,1.7l0,0
			C319.7,154.9,319,155.7,318,155.7z"/>
		<path fill="#F9DC5C" d="M271,155.7h4.4c0.9,0,1.7-0.8,1.7-1.7l0,0c0-0.9-0.8-1.7-1.7-1.7H271c-0.9,0-1.7,0.8-1.7,1.7l0,0
			C269.3,154.9,270,155.7,271,155.7z"/>
		<path fill="#F9DC5C" d="M253.7,164.3h-9.9c-0.9,0-1.7-0.8-1.7-1.7l0,0c0-0.9,0.8-1.7,1.7-1.7h9.9c0.9,0,1.7,0.8,1.7,1.7l0,0
			C255.3,163.5,254.6,164.3,253.7,164.3z"/>
		<path fill="#FF97B7" d="M259.4,164.3h25.5c0.9,0,1.7-0.8,1.7-1.7l0,0c0-0.9-0.8-1.7-1.7-1.7h-25.5c-0.9,0-1.7,0.8-1.7,1.7l0,0
			C257.7,163.5,258.5,164.3,259.4,164.3z"/>
		<path fill="#FFFFFF" d="M267.2,172.8h-23.5c-0.9,0-1.7-0.8-1.7-1.7l0,0c0-0.9,0.8-1.7,1.7-1.7h23.5c0.9,0,1.7,0.8,1.7,1.7l0,0
			C268.9,172.1,268.2,172.8,267.2,172.8z"/>
		<path fill="#FFFFFF" d="M318.6,172.8h-23.5c-0.9,0-1.7-0.8-1.7-1.7l0,0c0-0.9,0.8-1.7,1.7-1.7h23.5c0.9,0,1.7,0.8,1.7,1.7l0,0
			C320.3,172.1,319.6,172.8,318.6,172.8z"/>
		<path fill="#FFFFFF" d="M289.5,172.8h-16.4c-0.9,0-1.7-0.8-1.7-1.7l0,0c0-0.9,0.8-1.7,1.7-1.7h16.4c0.9,0,1.7,0.8,1.7,1.7l0,0
			C291.2,172.1,290.4,172.8,289.5,172.8z"/>
		<path fill="#FFFFFF" d="M300.6,181.4h-56.8c-0.9,0-1.7-0.8-1.7-1.7l0,0c0-0.9,0.8-1.7,1.7-1.7h56.8c0.9,0,1.7,0.8,1.7,1.7l0,0
			C302.3,180.6,301.5,181.4,300.6,181.4z"/>
		<path fill="#FF97B7" d="M285.4,190H270c-0.9,0-1.7-0.8-1.7-1.7l0,0c0-0.9,0.8-1.7,1.7-1.7h15.4c0.9,0,1.7,0.8,1.7,1.7l0,0
			C287.1,189.2,286.3,190,285.4,190z"/>
		<path fill="#FFFFFF" d="M263.8,190h-20c-0.9,0-1.7-0.8-1.7-1.7l0,0c0-0.9,0.8-1.7,1.7-1.7h20c0.9,0,1.7,0.8,1.7,1.7l0,0
			C265.4,189.2,264.7,190,263.8,190z"/>
		<path fill="#FFFFFF" d="M275.4,198.5h-31.6c-0.9,0-1.7-0.8-1.7-1.7l0,0c0-0.9,0.8-1.7,1.7-1.7h31.6c0.9,0,1.7,0.8,1.7,1.7l0,0
			C277.1,197.8,276.3,198.5,275.4,198.5z"/>
		<path fill="#FFFFFF" d="M313.7,198.5h-16.5c-0.9,0-1.7-0.8-1.7-1.7l0,0c0-0.9,0.8-1.7,1.7-1.7h16.5c0.9,0,1.7,0.8,1.7,1.7l0,0
			C315.4,197.8,314.6,198.5,313.7,198.5z"/>
		<path fill="#F9DC5C" d="M281.1,198.5h10.1c0.9,0,1.7-0.8,1.7-1.7l0,0c0-0.9-0.8-1.7-1.7-1.7h-10.1c-0.9,0-1.7,0.8-1.7,1.7l0,0
			C279.4,197.8,280.2,198.5,281.1,198.5z"/>
		<path fill="#FFFFFF" d="M262.4,207.1h-18.7c-0.9,0-1.7-0.8-1.7-1.7l0,0c0-0.9,0.8-1.7,1.7-1.7h18.7c0.9,0,1.7,0.8,1.7,1.7l0,0
			C264.1,206.4,263.4,207.1,262.4,207.1z"/>
		<path fill="#FFFFFF" d="M237.4,207.1h-1.5c-0.9,0-1.7-0.8-1.7-1.7l0,0c0-0.9,0.8-1.7,1.7-1.7h1.5c0.9,0,1.7,0.8,1.7,1.7l0,0
			C239,206.4,238.3,207.1,237.4,207.1z"/>
		<path fill="#FFFFFF" d="M237.4,215.7h-1.5c-0.9,0-1.7-0.8-1.7-1.7l0,0c0-0.9,0.8-1.7,1.7-1.7h1.5c0.9,0,1.7,0.8,1.7,1.7l0,0
			C239,214.9,238.3,215.7,237.4,215.7z"/>
		<path fill="#FFFFFF" d="M329.6,215.7h-1.5c-0.9,0-1.7-0.8-1.7-1.7l0,0c0-0.9,0.8-1.7,1.7-1.7h1.5c0.9,0,1.7,0.8,1.7,1.7l0,0
			C331.3,214.9,330.6,215.7,329.6,215.7z"/>
		<path fill="#FFFFFF" d="M302.2,207.1h-31.8c-0.9,0-1.7-0.8-1.7-1.7l0,0c0-0.9,0.8-1.7,1.7-1.7h31.8c0.9,0,1.7,0.8,1.7,1.7l0,0
			C303.9,206.4,303.2,207.1,302.2,207.1z"/>
		<path fill="#FF97B7" d="M281,215.7h-21.7c-0.9,0-1.7-0.8-1.7-1.7l0,0c0-0.9,0.8-1.7,1.7-1.7H281c0.9,0,1.7,0.8,1.7,1.7l0,0
			C282.7,214.9,282,215.7,281,215.7z"/>
		<path fill="#F9DC5C" d="M252.9,215.7h-9.1c-0.9,0-1.7-0.8-1.7-1.7l0,0c0-0.9,0.8-1.7,1.7-1.7h9.1c0.9,0,1.7,0.8,1.7,1.7l0,0
			C254.5,214.9,253.8,215.7,252.9,215.7z"/>
		<path fill="#FFFFFF" d="M237.4,215.7h-1.5c-0.9,0-1.7-0.8-1.7-1.7l0,0c0-0.9,0.8-1.7,1.7-1.7h1.5c0.9,0,1.7,0.8,1.7,1.7l0,0
			C239,214.9,238.3,215.7,237.4,215.7z"/>
		<path fill="#FFFFFF" d="M237.4,224.2h-1.5c-0.9,0-1.7-0.8-1.7-1.7l0,0c0-0.9,0.8-1.7,1.7-1.7h1.5c0.9,0,1.7,0.8,1.7,1.7l0,0
			C239,223.5,238.3,224.2,237.4,224.2z"/>
		<path fill="#F9DC5C" d="M329.6,224.2h-1.5c-0.9,0-1.7-0.8-1.7-1.7l0,0c0-0.9,0.8-1.7,1.7-1.7h1.5c0.9,0,1.7,0.8,1.7,1.7l0,0
			C331.3,223.5,330.6,224.2,329.6,224.2z"/>
		<path fill="#F9DC5C" d="M307.8,224.2h-16.5c-0.9,0-1.7-0.8-1.7-1.7l0,0c0-0.9,0.8-1.7,1.7-1.7h16.5c0.9,0,1.7,0.8,1.7,1.7l0,0
			C309.5,223.5,308.7,224.2,307.8,224.2z"/>
		<path fill="#FFFFFF" d="M285.4,224.2h-41.6c-0.9,0-1.7-0.8-1.7-1.7l0,0c0-0.9,0.8-1.7,1.7-1.7h41.6c0.9,0,1.7,0.8,1.7,1.7l0,0
			C287.1,223.5,286.3,224.2,285.4,224.2z"/>
		<path fill="#FFFFFF" d="M237.4,224.2h-1.5c-0.9,0-1.7-0.8-1.7-1.7l0,0c0-0.9,0.8-1.7,1.7-1.7h1.5c0.9,0,1.7,0.8,1.7,1.7l0,0
			C239,223.5,238.3,224.2,237.4,224.2z"/>
		<path fill="#FFFFFF" d="M237.4,232.8h-1.5c-0.9,0-1.7-0.8-1.7-1.7l0,0c0-0.9,0.8-1.7,1.7-1.7h1.5c0.9,0,1.7,0.8,1.7,1.7l0,0
			C239,232.1,238.3,232.8,237.4,232.8z"/>
		<path fill="#FF97B7" d="M329.6,232.8h-1.5c-0.9,0-1.7-0.8-1.7-1.7l0,0c0-0.9,0.8-1.7,1.7-1.7h1.5c0.9,0,1.7,0.8,1.7,1.7l0,0
			C331.3,232.1,330.6,232.8,329.6,232.8z"/>
		<path fill="#FFFFFF" d="M279.3,232.8h-16.5c-0.9,0-1.7-0.8-1.7-1.7l0,0c0-0.9,0.8-1.7,1.7-1.7h16.5c0.9,0,1.7,0.8,1.7,1.7l0,0
			C281,232.1,280.2,232.8,279.3,232.8z"/>
		<path fill="#FFFFFF" d="M302.3,232.8h-16.5c-0.9,0-1.7-0.8-1.7-1.7l0,0c0-0.9,0.8-1.7,1.7-1.7h16.5c0.9,0,1.7,0.8,1.7,1.7l0,0
			C303.9,232.1,303.2,232.8,302.3,232.8z"/>
		<path fill="#FFFFFF" d="M256.7,232.8h-12.9c-0.9,0-1.7-0.8-1.7-1.7l0,0c0-0.9,0.8-1.7,1.7-1.7h12.9c0.9,0,1.7,0.8,1.7,1.7l0,0
			C258.4,232.1,257.6,232.8,256.7,232.8z"/>
		<path fill="#FFFFFF" d="M237.4,232.8h-1.5c-0.9,0-1.7-0.8-1.7-1.7l0,0c0-0.9,0.8-1.7,1.7-1.7h1.5c0.9,0,1.7,0.8,1.7,1.7l0,0
			C239,232.1,238.3,232.8,237.4,232.8z"/>
		<path fill="#FFFFFF" d="M237.4,241.4h-1.5c-0.9,0-1.7-0.8-1.7-1.7l0,0c0-0.9,0.8-1.7,1.7-1.7h1.5c0.9,0,1.7,0.8,1.7,1.7l0,0
			C239,240.6,238.3,241.4,237.4,241.4z"/>
		<path fill="#FFFFFF" d="M329.6,241.4h-1.5c-0.9,0-1.7-0.8-1.7-1.7l0,0c0-0.9,0.8-1.7,1.7-1.7h1.5c0.9,0,1.7,0.8,1.7,1.7l0,0
			C331.3,240.6,330.6,241.4,329.6,241.4z"/>
		<path fill="#F9DC5C" d="M290.6,241.4h-16.5c-0.9,0-1.7-0.8-1.7-1.7l0,0c0-0.9,0.8-1.7,1.7-1.7h16.5c0.9,0,1.7,0.8,1.7,1.7l0,0
			C292.3,240.6,291.5,241.4,290.6,241.4z"/>
		<path fill="#FF97B7" d="M268.2,241.4h-24.4c-0.9,0-1.7-0.8-1.7-1.7l0,0c0-0.9,0.8-1.7,1.7-1.7h24.4c0.9,0,1.7,0.8,1.7,1.7l0,0
			C269.8,240.6,269.1,241.4,268.2,241.4z"/>
		<path fill="#FFFFFF" d="M237.4,241.4h-1.5c-0.9,0-1.7-0.8-1.7-1.7l0,0c0-0.9,0.8-1.7,1.7-1.7h1.5c0.9,0,1.7,0.8,1.7,1.7l0,0
			C239,240.6,238.3,241.4,237.4,241.4z"/>
		<path fill="#FFFFFF" d="M237.4,249.9h-1.5c-0.9,0-1.7-0.8-1.7-1.7l0,0c0-0.9,0.8-1.7,1.7-1.7h1.5c0.9,0,1.7,0.8,1.7,1.7l0,0
			C239,249.2,238.3,249.9,237.4,249.9z"/>
		<path fill="#F9DC5C" d="M329.6,249.9h-1.5c-0.9,0-1.7-0.8-1.7-1.7l0,0c0-0.9,0.8-1.7,1.7-1.7h1.5c0.9,0,1.7,0.8,1.7,1.7l0,0
			C331.3,249.2,330.6,249.9,329.6,249.9z"/>
		<path fill="#FFFFFF" d="M307.8,249.9h-16.5c-0.9,0-1.7-0.8-1.7-1.7l0,0c0-0.9,0.8-1.7,1.7-1.7h16.5c0.9,0,1.7,0.8,1.7,1.7l0,0
			C309.5,249.2,308.7,249.9,307.8,249.9z"/>
		<path fill="#FFFFFF" d="M285.4,249.9h-41.6c-0.9,0-1.7-0.8-1.7-1.7l0,0c0-0.9,0.8-1.7,1.7-1.7h41.6c0.9,0,1.7,0.8,1.7,1.7l0,0
			C287.1,249.2,286.3,249.9,285.4,249.9z"/>
		<path fill="#FFFFFF" d="M237.4,249.9h-1.5c-0.9,0-1.7-0.8-1.7-1.7l0,0c0-0.9,0.8-1.7,1.7-1.7h1.5c0.9,0,1.7,0.8,1.7,1.7l0,0
			C239,249.2,238.3,249.9,237.4,249.9z"/>
		<path fill="#FFFFFF" d="M237.4,258.5h-1.5c-0.9,0-1.7-0.8-1.7-1.7l0,0c0-0.9,0.8-1.7,1.7-1.7h1.5c0.9,0,1.7,0.8,1.7,1.7l0,0
			C239,257.8,238.3,258.5,237.4,258.5z"/>
		<path fill="#FFFFFF" d="M329.6,258.5h-1.5c-0.9,0-1.7-0.8-1.7-1.7l0,0c0-0.9,0.8-1.7,1.7-1.7h1.5c0.9,0,1.7,0.8,1.7,1.7l0,0
			C331.3,257.8,330.6,258.5,329.6,258.5z"/>
		<path fill="#FFFFFF" d="M237.4,258.5h-1.5c-0.9,0-1.7-0.8-1.7-1.7l0,0c0-0.9,0.8-1.7,1.7-1.7h1.5c0.9,0,1.7,0.8,1.7,1.7l0,0
			C239,257.8,238.3,258.5,237.4,258.5z"/>
		<path fill="#FFFFFF" d="M237.4,267.1h-1.5c-0.9,0-1.7-0.8-1.7-1.7l0,0c0-0.9,0.8-1.7,1.7-1.7h1.5c0.9,0,1.7,0.8,1.7,1.7l0,0
			C239,266.3,238.3,267.1,237.4,267.1z"/>
		<path fill="#FF97B7" d="M329.6,267.1h-1.5c-0.9,0-1.7-0.8-1.7-1.7l0,0c0-0.9,0.8-1.7,1.7-1.7h1.5c0.9,0,1.7,0.8,1.7,1.7l0,0
			C331.3,266.3,330.6,267.1,329.6,267.1z"/>
		<path fill="#FFFFFF" d="M275.4,258.5h-31.6c-0.9,0-1.7-0.8-1.7-1.7l0,0c0-0.9,0.8-1.7,1.7-1.7h31.6c0.9,0,1.7,0.8,1.7,1.7l0,0
			C277.1,257.8,276.3,258.5,275.4,258.5z"/>
		<path fill="#FFFFFF" d="M313.7,258.5h-16.5c-0.9,0-1.7-0.8-1.7-1.7l0,0c0-0.9,0.8-1.7,1.7-1.7h16.5c0.9,0,1.7,0.8,1.7,1.7l0,0
			C315.4,257.8,314.6,258.5,313.7,258.5z"/>
		<path fill="#FFFFFF" d="M307.8,267.1h-43.3c-0.9,0-1.7-0.8-1.7-1.7l0,0c0-0.9,0.8-1.7,1.7-1.7h43.3c0.9,0,1.7,0.8,1.7,1.7l0,0
			C309.5,266.3,308.7,267.1,307.8,267.1z"/>
		<path fill="#F9DC5C" d="M281.1,258.5h10.1c0.9,0,1.7-0.8,1.7-1.7l0,0c0-0.9-0.8-1.7-1.7-1.7h-10.1c-0.9,0-1.7,0.8-1.7,1.7l0,0
			C279.4,257.8,280.2,258.5,281.1,258.5z"/>
		<path fill="#FFFFFF" d="M256.7,267.1h-12.9c-0.9,0-1.7-0.8-1.7-1.7l0,0c0-0.9,0.8-1.7,1.7-1.7h12.9c0.9,0,1.7,0.8,1.7,1.7l0,0
			C258.4,266.3,257.6,267.1,256.7,267.1z"/>
		<path fill="#FFFFFF" d="M237.4,267.1h-1.5c-0.9,0-1.7-0.8-1.7-1.7l0,0c0-0.9,0.8-1.7,1.7-1.7h1.5c0.9,0,1.7,0.8,1.7,1.7l0,0
			C239,266.3,238.3,267.1,237.4,267.1z"/>
		<path fill="#FFFFFF" d="M237.4,275.6h-1.5c-0.9,0-1.7-0.8-1.7-1.7l0,0c0-0.9,0.8-1.7,1.7-1.7h1.5c0.9,0,1.7,0.8,1.7,1.7l0,0
			C239,274.9,238.3,275.6,237.4,275.6z"/>
		<path fill="#F9DC5C" d="M329.6,275.6h-1.5c-0.9,0-1.7-0.8-1.7-1.7l0,0c0-0.9,0.8-1.7,1.7-1.7h1.5c0.9,0,1.7,0.8,1.7,1.7l0,0
			C331.3,274.9,330.6,275.6,329.6,275.6z"/>
		<path fill="#FF97B7" d="M293.8,275.6h-16.5c-0.9,0-1.7-0.8-1.7-1.7l0,0c0-0.9,0.8-1.7,1.7-1.7h16.5c0.9,0,1.7,0.8,1.7,1.7l0,0
			C295.5,274.9,294.8,275.6,293.8,275.6z"/>
		<path fill="#F9DC5C" d="M270.1,275.6h-26.3c-0.9,0-1.7-0.8-1.7-1.7l0,0c0-0.9,0.8-1.7,1.7-1.7h26.3c0.9,0,1.7,0.8,1.7,1.7l0,0
			C271.8,274.9,271,275.6,270.1,275.6z"/>
	</g>
</g>
<image width="47" height="56" xlink:href="960DB5F0.png"  transform="matrix(1 0 0 1 223.4154 237)">
</image>
<image width="62" height="57" xlink:href="960DB5CE.png"  transform="matrix(1 0 0 1 262.4154 96)">
</image>
<g>
	<path id="XMLID_00000132804970838146164350000002949711588887411590_" fill="#80ED99" d="M291.8,122.6l-5.6,1
		c-2.5,0.5-4.6-1.7-4.1-4.2l1.4-7.7c0.3-1.7,0.2-3.4-0.4-5c-1.2-3.4-1.8-7.2-1.7-11c0.6-15.8,13.8-28.4,29.6-28.4
		c16.4,0,29.6,13.4,29.5,29.8c-0.1,15.8-12.8,28.8-28.6,29.4c-5.1,0.2-9.8-1-14.1-3C296.1,122.5,293.9,122.3,291.8,122.6z"/>
	<path fill="#B3F4C2" d="M283.5,111.8c0.3-1.7,0.2-3.4-0.4-5c-1.2-3.4-1.8-7.2-1.7-11c0.6-15.8,13.8-28.4,29.6-28.4
		c11.7,0,21.8,6.8,26.6,16.6c-4.9-9.5-14.8-16.1-26.3-16.1c-15.8,0-28.9,12.6-29.6,28.4c-0.2,3.9,0.5,7.6,1.7,11
		c0.6,1.6,0.7,3.4,0.4,5l-1.4,7.7c-0.1,0.7,0,1.4,0.2,2c-0.5-0.7-0.7-1.6-0.5-2.5L283.5,111.8z"/>
	<image width="60" height="58" xlink:href="960DB5D1.png"  transform="matrix(1 0 0 1 281.4154 69)">
	</image>
	<image width="47" height="39" xlink:href="960DB5D2.png"  transform="matrix(1 0 0 1 281.4154 67)">
	</image>
	<g>
		<g id="XMLID_00000174578399257517650900000011478985303113978030_">
			<path id="XMLID_00000175315910863145880990000006139187593517078195_" fill="#F4FEF5" d="M306.4,105.5l-7.8-7.8
				c-0.4-0.4-0.4-1.1,0-1.5l4-4c0.4-0.4,1.1-0.4,1.5,0l3.4,3.4l10.7-10.7c0.4-0.4,1.1-0.4,1.5,0l4,4c0.4,0.4,0.4,1.1,0,1.5
				l-15.1,15.1C308,106.1,307,106.1,306.4,105.5z"/>
		</g>
		<path fill="#FFFFFF" d="M298.6,96.7l4-4c0.4-0.4,1.1-0.4,1.5,0l3.4,3.4l10.7-10.7c0.4-0.4,1.1-0.4,1.5,0l4,4
			c0.2,0.2,0.2,0.3,0.3,0.5c0.1-0.3,0-0.7-0.3-1l-4-4c-0.4-0.4-1.1-0.4-1.5,0l-10.7,10.7l-3.4-3.4c-0.4-0.4-1.1-0.4-1.5,0l-4,4
			c-0.3,0.3-0.4,0.6-0.3,1C298.4,97,298.4,96.8,298.6,96.7z"/>
		<path fill="#80ED99" d="M323.7,89.8l-15.1,15.1c-0.6,0.6-1.6,0.6-2.2,0l-7.8-7.8c-0.1-0.1-0.2-0.3-0.3-0.5c-0.1,0.4,0,0.8,0.3,1.1
			l7.8,7.8c0.6,0.6,1.6,0.6,2.2,0l15.1-15.1c0.3-0.3,0.4-0.7,0.3-1.1C323.9,89.5,323.8,89.7,323.7,89.8z"/>
		<image width="33" height="21" xlink:href="960DB5D0.png"  transform="matrix(1 0 0 1 294.4154 89)">
		</image>
	</g>
</g>
<image width="84" height="42" xlink:href="960DB5D5.png"  transform="matrix(1 0 0 1 260.4154 251)">
</image>
<g>
	<path fill="#F9DC5C" d="M330.5,342.7h-55.2c-8.1,0-14.7-6.6-14.7-14.7v-42.9c0-8.1,6.6-14.7,14.7-14.7h55.2
		c8.1,0,14.7,6.6,14.7,14.7V328C345.2,336.1,338.6,342.7,330.5,342.7z"/>
	<image width="84" height="72" xlink:href="960DB5D6.png"  transform="matrix(1 0 0 1 260.4154 270)">
	</image>
	<image width="84" height="72" xlink:href="960DB639.png"  transform="matrix(1 0 0 1 261.4154 271)">
	</image>
</g>
<g>
	<image width="15" height="14" xlink:href="960DB63A.png"  transform="matrix(1 0 0 1 314.4154 299)">
	</image>
	<image width="20" height="20" xlink:href="960DB63B.png"  transform="matrix(1 0 0 1 304.4154 310)">
	</image>
	<image width="15" height="16" xlink:href="960DB63C.png"  transform="matrix(1 0 0 1 293.4154 317)">
	</image>
	<image width="20" height="20" xlink:href="960DB638.png"  transform="matrix(1 0 0 1 279.4154 310)">
	</image>
	<image width="14" height="13" xlink:href="960DB646.png"  transform="matrix(1 0 0 1 275.4154 299)">
	</image>
	<image width="19" height="19" xlink:href="960DB647.png"  transform="matrix(1 0 0 1 307.4154 283)">
	</image>
	<path id="XMLID_00000054977208572716882070000005686073308047265173_" fill="#4D5068" d="M285.9,312.1c0.3,0.6,0.1,1.3-0.3,1.7
		l-2.9,2.9c-0.7,0.7-0.7,1.9,0,2.7l4.6,4.6c0.7,0.7,1.9,0.7,2.7,0l2.8-2.8c0.5-0.5,1.2-0.6,1.8-0.3c0.4,0.2,0.7,0.3,1.1,0.5
		c0.6,0.2,1.1,0.8,1,1.5l0,4c0,1,0.8,1.9,1.9,1.9l6.5,0c1,0,1.9-0.8,1.9-1.9l0-4.1c0-0.6,0.4-1.2,1-1.4c0.4-0.1,0.8-0.3,1.2-0.5
		c0.6-0.2,1.3-0.1,1.7,0.3l2.9,2.9c0.7,0.7,1.9,0.7,2.7,0l4.6-4.6c0.7-0.7,0.7-1.9,0-2.7l-2.8-2.8c-0.5-0.5-0.6-1.2-0.3-1.8
		c0.2-0.4,0.3-0.7,0.5-1.1c0.2-0.6,0.8-1,1.5-1l4,0c1,0,1.9-0.8,1.9-1.9l0-6.5c0-1-0.8-1.9-1.9-1.9l-4.1,0c-0.6,0-1.2-0.4-1.4-1
		c-0.1-0.4-0.3-0.8-0.5-1.2c-0.2-0.6-0.1-1.3,0.3-1.7l2.9-2.9c0.7-0.7,0.7-1.9,0-2.7l-4.6-4.6c-0.7-0.7-1.9-0.7-2.7,0l-2.8,2.8
		c-0.5,0.5-1.2,0.6-1.8,0.3c-0.4-0.2-0.8-0.3-1.2-0.5c-0.6-0.2-1.1-0.8-1.1-1.5v-4c0-1-0.8-1.9-1.9-1.9h-6.5c-1,0-1.9,0.8-1.9,1.9
		v4.1c0,0.6-0.4,1.2-1,1.4c-0.4,0.1-0.8,0.3-1.2,0.5c-0.6,0.3-1.3,0.1-1.7-0.3l-2.9-2.9c-0.7-0.7-1.9-0.7-2.7,0l-4.6,4.6
		c-0.7,0.7-0.7,1.9,0,2.7l2.8,2.8c0.5,0.5,0.6,1.2,0.3,1.8c-0.2,0.4-0.3,0.7-0.5,1.1c-0.2,0.6-0.8,1.1-1.5,1.1l-4,0
		c-1,0-1.9,0.8-1.9,1.9l0,6.5c0,1,0.8,1.9,1.9,1.9l5.1,0C285,310,285.4,311.1,285.9,312.1z M305.3,313.4c-5.4,2.1-11.4-1.2-12.5-7
		c-0.8-4.3,1.7-8.7,5.8-10.3c5.4-2.1,11.4,1.2,12.5,7C311.9,307.4,309.4,311.8,305.3,313.4z"/>
	<g>
		<path fill="#3A3C4E" d="M318.3,295.7c-0.5,0.4-0.6,1.1-0.3,1.7c0.1,0.3,0.3,0.7,0.4,1l-0.2,0c-0.6,0-1.2-0.4-1.4-1
			c-0.1-0.4-0.3-0.8-0.5-1.2c-0.2-0.6-0.1-1.3,0.3-1.7l2.9-2.9c0.7-0.7,0.7-1.9,0-2.7l-3.9-3.9c0.4,0.1,0.7,0.2,1,0.5l4.6,4.6
			c0.7,0.7,0.7,1.9,0,2.7L318.3,295.7z"/>
		<path fill="#3A3C4E" d="M291.1,305.2c-0.8-4.3,1.7-8.7,5.8-10.3c3.4-1.3,7.1-0.5,9.6,1.8c-2.3-1.3-5.1-1.6-7.8-0.5
			c-4.1,1.6-6.6,6-5.8,10.3c0.4,2.1,1.5,3.9,2.9,5.2C293.4,310.4,291.6,308.1,291.1,305.2z"/>
		<path fill="#3A3C4E" d="M296.9,327.5l6.5,0c1,0,1.9-0.8,1.9-1.9l0-4.1c0-0.6,0.4-1.2,1-1.4c0.4-0.1,0.8-0.3,1.2-0.5
			c0.6-0.2,1.3-0.1,1.7,0.3l0.8,0.8c-0.3,0-0.5,0-0.8,0.1c-0.4,0.2-0.8,0.3-1.2,0.5c-0.6,0.2-1,0.8-1,1.4l0,4.1c0,1-0.8,1.9-1.9,1.9
			l-6.5,0C297.8,328.7,297.1,328.2,296.9,327.5C296.9,327.5,296.9,327.5,296.9,327.5z"/>
		<path fill="#3A3C4E" d="M314.8,322.8l4.6-4.6c0.7-0.7,0.7-1.9,0-2.7l-2.8-2.8c-0.5-0.5-0.6-1.2-0.3-1.8c0.2-0.4,0.3-0.7,0.5-1.1
			c0.2-0.6,0.8-1,1.5-1l4,0c1,0,1.9-0.8,1.9-1.9l0-6.5c0-0.2,0-0.4-0.1-0.7c1,0,1.8,0.9,1.8,1.9l0,6.5c0,1-0.8,1.9-1.9,1.9l-4,0
			c-0.7,0-1.2,0.4-1.5,1c-0.1,0.4-0.3,0.7-0.5,1.1c-0.3,0.6-0.2,1.3,0.3,1.8l2.8,2.8c0.7,0.7,0.7,1.9,0,2.7l-4.6,4.6
			c-0.7,0.7-1.9,0.7-2.7,0l-0.7-0.7C313.7,323.4,314.3,323.2,314.8,322.8z"/>
		<path fill="#3A3C4E" d="M288.2,322.8l2.8-2.8c0.5-0.5,1.2-0.6,1.8-0.3c0.4,0.2,0.7,0.3,1.1,0.5c0.4,0.2,0.8,0.5,0.9,0.9
			c-0.1,0-0.2-0.1-0.3-0.1c-0.6-0.3-1.3-0.2-1.8,0.3L290,324c-0.7,0.7-1.9,0.7-2.7,0l-0.7-0.7C287.2,323.4,287.8,323.2,288.2,322.8z
			"/>
	</g>
	<image width="18" height="17" xlink:href="960DB648.png"  transform="matrix(1 0 0 1 292.4154 295)">
	</image>
</g>
<g>
	<g>
		<g>
			<path fill="#F5EFFF" d="M147.3,369.7h-7.6l-8.4,68c-0.3,2,1.3,3.8,3.4,3.8l0,0c1.7,0,3.2-1.3,3.4-3L147.3,369.7z"/>
			<image width="15" height="73" xlink:href="960DB649.png"  transform="matrix(1 0 0 1 132.4154 369)">
			</image>
			<image width="11" height="19" xlink:href="960DB64A.png"  transform="matrix(1 0 0 1 136.4154 369)">
			</image>
		</g>
		<g>
			<path fill="#F5EFFF" d="M141,379.4h-7.6l-8.4,68c-0.3,2,1.3,3.8,3.4,3.8l0,0c1.7,0,3.2-1.3,3.4-3L141,379.4z"/>
			<image width="15" height="73" xlink:href="960DB618.png"  transform="matrix(1 0 0 1 126.4154 379)">
			</image>
			<image width="11" height="18" xlink:href="960DB665.png"  transform="matrix(1 0 0 1 130.4154 379)">
			</image>
		</g>
		<g>
			<path fill="#F5EFFF" d="M225.3,369.7h7.6l8.4,68c0.3,2-1.3,3.8-3.4,3.8l0,0c-1.7,0-3.2-1.3-3.4-3L225.3,369.7z"/>
			<image width="16" height="73" xlink:href="960DB617.png"  transform="matrix(1 0 0 1 224.4154 369)">
			</image>
			<image width="11" height="19" xlink:href="960DB66D.png"  transform="matrix(1 0 0 1 224.4154 369)">
			</image>
		</g>
		<g>
			<path fill="#F5EFFF" d="M231.6,379.4h7.6l8.4,68c0.3,2-1.3,3.8-3.4,3.8l0,0c-1.7,0-3.2-1.3-3.4-3L231.6,379.4z"/>
			<image width="15" height="73" xlink:href="960DB66F.png"  transform="matrix(1 0 0 1 231.4154 379)">
			</image>
			<image width="11" height="18" xlink:href="960DB66C.png"  transform="matrix(1 0 0 1 231.4154 379)">
			</image>
		</g>
		<linearGradient id="SVGID_20_" gradientUnits="userSpaceOnUse" x1="186.2657" y1="381.4987" x2="186.2657" y2="279.1008">
			<stop  offset="0" style="stop-color:#212121"/>
			<stop  offset="4.987407e-02" style="stop-color:#26282C"/>
			<stop  offset="0.1573" style="stop-color:#2E323D"/>
			<stop  offset="0.2911" style="stop-color:#333A48"/>
			<stop  offset="0.4788" style="stop-color:#363E4F"/>
			<stop  offset="1" style="stop-color:#373F51"/>
		</linearGradient>
		<path fill="url(#SVGID_20_)" d="M250.9,288.5l-4.1,73.5v8.2c0,6.2-5.1,11.3-11.3,11.3h-98.3c-6.2,0-11.3-5.1-11.3-11.3V362
			l-4.1-73.5c-0.3-5.1,3.8-9.4,8.9-9.4h111.3C247.1,279.1,251.1,283.4,250.9,288.5z"/>
		<image width="57" height="25" xlink:href="960DB664.png"  transform="matrix(1 0 0 1 137.4154 357)">
		</image>
		<image width="57" height="25" xlink:href="960DB661.png"  transform="matrix(1 0 0 1 177.4154 357)">
		</image>
		<image width="20" height="103" xlink:href="960DB662.png"  transform="matrix(1 0 0 1 231.4154 279)">
		</image>
		<image width="20" height="103" xlink:href="960DB663.png"  transform="matrix(1 0 0 1 121.4154 279)">
		</image>
	</g>
	<g>
		<g>
			<g>
				<image width="43" height="33" xlink:href="960DB60C.png"  transform="matrix(1 0 0 1 166.4154 213)">
				</image>
				<image width="31" height="27" xlink:href="960DB600.png"  transform="matrix(1 0 0 1 170.4154 209)">
				</image>
				<linearGradient id="SVGID_21_" gradientUnits="userSpaceOnUse" x1="187.7748" y1="278.8326" x2="187.7748" y2="229.2796">
					<stop  offset="0.4123" style="stop-color:#FF9800"/>
					<stop  offset="0.5292" style="stop-color:#FDAF1F"/>
					<stop  offset="0.6798" style="stop-color:#FBC740"/>
					<stop  offset="0.805" style="stop-color:#F9D755"/>
					<stop  offset="0.8885" style="stop-color:#F9DC5C"/>
				</linearGradient>
				<path fill="url(#SVGID_21_)" d="M238,273v-4.1c0-15.6-9.7-29.6-24.3-35.1l-13.6-5.1c-0.6-0.2-1.3-0.1-1.8,0.3l0,0
					c-6.1,5.2-15,5.2-21.1,0.1l-0.1-0.1c-0.5-0.4-1.2-0.5-1.8-0.3l-13.6,5.1c-14.6,5.5-24.3,19.5-24.3,35.1v4.1H238z"/>
				<image width="40" height="33" xlink:href="960DB601.png"  transform="matrix(1 0 0 1 138.4154 228)">
				</image>
				<image width="40" height="33" xlink:href="960DB602.png"  transform="matrix(1 0 0 1 197.4154 228)">
				</image>
				<image width="25" height="8" xlink:href="960DB603.png"  transform="matrix(1 0 0 1 175.4154 228)">
				</image>
			</g>
			<g>
				<image width="10" height="12" xlink:href="960DB61E.png"  transform="matrix(1 0 0 1 160.4154 191)">
				</image>
				<image width="10" height="12" xlink:href="960DB609.png"  transform="matrix(1 0 0 1 160.4154 191)">
				</image>
				<image width="11" height="12" xlink:href="960DB60A.png"  transform="matrix(1 0 0 1 202.4154 191)">
				</image>
				<image width="11" height="12" xlink:href="960DB608.png"  transform="matrix(1 0 0 1 202.4154 191)">
				</image>
				<image width="43" height="49" xlink:href="960DB60E.png"  transform="matrix(1 0 0 1 165.4154 174)">
				</image>
				<image width="43" height="47" xlink:href="960DB626.png"  transform="matrix(1 0 0 1 165.4154 176)">
				</image>
				<path fill="#231F20" d="M196.3,190.9h-5.1c-0.3,0-0.6-0.3-0.6-0.6v-0.1c0-0.2,0.1-0.4,0.3-0.5l0.2-0.1c1.6-0.8,3.5-0.8,5.1,0.1
					l0.3,0.2c0.2,0.1,0.3,0.3,0.3,0.5l0,0C196.9,190.6,196.7,190.9,196.3,190.9z"/>
				<path fill="#231F20" d="M180.7,190.9h-5.1c-0.3,0-0.6-0.3-0.6-0.6v-0.1c0-0.2,0.1-0.4,0.3-0.5l0.2-0.1c1.6-0.8,3.5-0.8,5.1,0.1
					l0.3,0.2c0.2,0.1,0.3,0.3,0.3,0.5l0,0C181.3,190.6,181.1,190.9,180.7,190.9z"/>
				<path fill="#231F20" d="M191.9,195.8c0,1.1,0.6,2,1.4,2s1.4-0.9,1.4-2s-0.6-2-1.4-2S191.9,194.6,191.9,195.8z"/>
				<path fill="#231F20" d="M176.5,195.8c0,1.1,0.6,2,1.4,2s1.4-0.9,1.4-2s-0.6-2-1.4-2S176.5,194.6,176.5,195.8z"/>
				<image width="14" height="14" xlink:href="960DB629.png"  transform="matrix(1 0 0 1 167.4154 195)">
				</image>
				<image width="13" height="14" xlink:href="960DB62A.png"  transform="matrix(1 0 0 1 191.4154 194)">
				</image>
				<path fill="#373F51" d="M203.2,170.5L203.2,170.5c0.1,0,0.9,0.1,2.1,0.1c3.7,0.1,6.6,3.1,6.7,6.8c0.1,4-1.1,8.4-2.6,12.8
					l-0.8,2.3c-0.1,0.1-0.3,0.1-0.3,0v-0.2c0-0.9-0.2-1.8-0.5-2.6c-0.8-2-3-6.1-8.4-14.1C199.3,175.6,198.5,171,203.2,170.5z"/>
				<path fill="#373F51" d="M169.2,179.1c0,0-3.9,3.4-3.7,16.1c0,0-0.4,0.1-0.8-2.2c-0.6-3.4-2.9-16.4-2.9-16.4
					S170,174.7,169.2,179.1z"/>
				<image width="10" height="23" xlink:href="960DB62B.png"  transform="matrix(1 0 0 1 202.4154 170)">
				</image>
				<image width="8" height="6" xlink:href="960DB62C.png"  transform="matrix(1 0 0 1 161.4154 178)">
				</image>
				<path fill="#373F51" d="M207.5,189.2c1,3.1-4,17-9.7,18.1c-3.2,0.6-5-0.5-5.9-1.7c-0.9-1.1-2.2-1.8-3.6-1.8l-5.2,0
					c-1.6,0-3.1,0.9-3.9,2.3c-0.9,1.6-2.8,2.9-6.7,0.5c-5.4-3.3-6.5-12.7-6.8-16.2c-0.1-0.9-0.3-0.9-0.3-0.9s-0.5-0.1-0.4,0.4v11.5
					c0.4,11.4,9.9,21,21.7,21l0,0c11.8,0,21.3-9.6,21.3-21.3l0.4-10.1L207.5,189.2z"/>
				<image width="9" height="12" xlink:href="960DB628.png"  transform="matrix(1 0 0 1 182.4154 199)">
				</image>
				<image width="7" height="8" xlink:href="960DB614.png"  transform="matrix(1 0 0 1 182.4154 197)">
				</image>
				<image width="7" height="8" xlink:href="960DB615.png"  transform="matrix(1 0 0 1 182.4154 197)">
				</image>
				<image width="44" height="26" xlink:href="960DB610.png"  transform="matrix(1 0 0 1 164.4154 197)">
				</image>
				<image width="22" height="13" xlink:href="960DB611.png"  transform="matrix(1 0 0 1 164.4154 198)">
				</image>
				<image width="23" height="15" xlink:href="960DB6CE.png"  transform="matrix(1 0 0 1 185.4154 196)">
				</image>
				<g>
					<image width="11" height="7" xlink:href="960DB6CA.png"  transform="matrix(1 0 0 1 180.4154 209)">
					</image>
					<image width="14" height="7" xlink:href="960DB6C9.png"  transform="matrix(1 0 0 1 179.4154 210)">
					</image>
					<image width="12" height="2" xlink:href="960DB6C6.png"  transform="matrix(1 0 0 1 180.4154 209)">
					</image>
					<path fill="#FFFFFF" d="M181.6,210.7c-0.1-0.1-0.2-0.4-0.1-0.8c0.1,0,0.1,0,0.2,0c4.2,0.9,7.7,0.3,9,0c0,0,0,0,0.1,0
						c0,0.3,0,0.6-0.1,0.7C189,212.1,183.2,212.1,181.6,210.7z"/>
					<image width="10" height="3" xlink:href="960DB6F9.png"  transform="matrix(1 0 0 1 181.4154 209)">
					</image>
				</g>
				<image width="36" height="14" xlink:href="960DB6FE.png"  transform="matrix(1 0 0 1 165.4154 172)">
				</image>
				<path fill="#373F51" d="M190.9,178.6l-27.9,0.4c-2.7,0-5.3-1-7.1-2.9c-1.2-1.3-2.1-2.9-2.1-5.1c0-3.4,8.5-8.8,15.6-12.7
					c8.3-4.6,18.3-4.9,26.8-0.7c2,1,3.9,2.3,5.5,3.9c2.9,3,2.8,6.2,1.6,9.1C201.1,175.4,196.3,178.5,190.9,178.6z"/>
				<image width="17" height="25" xlink:href="960DB6FC.png"  transform="matrix(1 0 0 1 187.4154 154)">
				</image>
				<image width="42" height="17" xlink:href="960DB6F4.png"  transform="matrix(1 0 0 1 154.4154 161)">
				</image>
			</g>
		</g>
		<g>
			<image width="76" height="60" xlink:href="960DB6F5.png"  transform="matrix(1 0 0 1 174.4154 271)">
			</image>
			<image width="19" height="28" xlink:href="960DB6F6.png"  transform="matrix(1 0 0 1 230.4154 271)">
			</image>
			<image width="67" height="60" xlink:href="AFFB3899.png"  transform="matrix(1 0 0 1 183.4154 271)">
			</image>
			<image width="40" height="41" xlink:href="AFFB389A.png"  transform="matrix(1 0 0 1 199.4154 280)">
			</image>
		</g>
		<g>
			<image width="76" height="60" xlink:href="AFFB389B.png"  transform="matrix(1 0 0 1 124.4154 271)">
			</image>
			<image width="20" height="28" xlink:href="AFFB389E.png"  transform="matrix(1 0 0 1 124.4154 271)">
			</image>
			<image width="67" height="60" xlink:href="AFFB3898.png"  transform="matrix(1 0 0 1 124.4154 271)">
			</image>
			<image width="40" height="41" xlink:href="AFFB3886.png"  transform="matrix(1 0 0 1 135.4154 280)">
			</image>
		</g>
		<g>
			<path fill="#7371FC" d="M203.1,361h-32.8c-6.7,2.8-12.1-2.6-12.1-9.3v-32.5h57.1v32.5C215.2,358.4,209.8,363.8,203.1,361z"/>
			<g>
				<image width="24" height="39" xlink:href="AFFB3887.png"  transform="matrix(1 0 0 1 141.4154 406)">
				</image>
				<linearGradient id="SVGID_22_" gradientUnits="userSpaceOnUse" x1="153.1782" y1="475.45" x2="153.1782" y2="431.2332">
					<stop  offset="0" style="stop-color:#FF9800"/>
					<stop  offset="0.2181" style="stop-color:#FDAF1F"/>
					<stop  offset="0.4991" style="stop-color:#FBC740"/>
					<stop  offset="0.7327" style="stop-color:#F9D755"/>
					<stop  offset="0.8885" style="stop-color:#F9DC5C"/>
				</linearGradient>
				<path fill="url(#SVGID_22_)" d="M172.4,475.5v-8.7c0-4-1.2-6.9-2.4-11.6l-3.4-12.8c-0.5-1.3-1.5-2.3-2.7-3
					c-0.2-0.1-0.4-0.2-0.6-0.3c-0.8-0.3-1.3-1.1-1.3-2v-0.9c0-1.5-1-2.9-2.4-3.5c-2.9-1.1-8-2.4-12.5-0.3c-1.3,0.6-2.1,1.9-2.1,3.4
					v2.3l-2.6,3.2c-1.7,2-2.8,4.5-3.3,7l-4.1,13.2c-0.7,2.2-1,4.5-1,6.8v7.1H172.4z"/>
				<image width="40" height="14" xlink:href="AFFB3888.png"  transform="matrix(1 0 0 1 133.4154 459)">
				</image>
				<path fill="#F5EFFF" d="M174.3,473l-0.8-8.6c-0.2-0.8-1.2-1-1.7-0.3l-0.1,0.2c-0.4,0.7-0.7,1.4-0.8,2.2c0,0.1,0,0.3-0.1,0.4
					c-0.4,2.4-2.6,4-5,3.8c-2.2-0.2-7.1-3.1-12-3.1c-4.9,0-9.6,2.9-11.5,3.1c-2.7,0.3-5.2-1.5-5.6-4.2c0,0,0,0,0-0.1
					c-0.1-0.8-0.3-1.5-0.8-2.2l-0.1-0.2c-0.4-0.7-1.5-0.5-1.7,0.3l-0.8,8.6c0,0-0.1,0.1-0.1,0.1v3.9c0,2.3,1.5,4.4,3.8,5
					c3.4,1,9.2,2.2,16.8,2.1c7.6,0.1,13.4-1.1,16.8-2.1c2.2-0.7,3.8-2.7,3.8-5L174.3,473C174.4,473,174.4,473,174.3,473z"/>
				<image width="17" height="30" xlink:href="AFFB388B.png"  transform="matrix(1 0 0 1 155.4154 438)">
				</image>
				<g>
					<path fill="#231F20" d="M146.5,457.5c0.2,0,0.3-0.1,0.5-0.2c6-4.4,12.3-0.2,12.5,0c0.4,0.3,0.9,0.2,1.2-0.2
						c0.3-0.4,0.2-0.9-0.2-1.2c-0.1-0.1-7.5-5.1-14.5,0c-0.4,0.3-0.5,0.8-0.2,1.2C146,457.4,146.2,457.5,146.5,457.5z"/>
				</g>
				<g>
					<path fill="#231F20" d="M160,451.5c0.3,0,0.5-0.1,0.7-0.4c0.3-0.4,0.2-0.9-0.2-1.2c-0.1-0.1-7.5-5.1-14.5,0
						c-0.4,0.3-0.5,0.8-0.2,1.2c0.3,0.4,0.8,0.5,1.2,0.2c6-4.4,12.5,0,12.5,0C159.7,451.5,159.8,451.5,160,451.5z"/>
				</g>
				<g>
					<path fill="#231F20" d="M160.9,445.9c0.3,0,0.5-0.1,0.7-0.4c0.3-0.4,0.2-0.9-0.2-1.2c-0.1-0.1-7.5-5.1-14.5,0
						c-0.4,0.3-0.5,0.8-0.2,1.2c0.3,0.4,0.8,0.5,1.2,0.2c6-4.4,12.5,0,12.5,0C160.6,445.8,160.8,445.9,160.9,445.9z"/>
				</g>
				<image width="29" height="13" xlink:href="AFFB388E.png"  transform="matrix(1 0 0 1 141.4154 454)">
				</image>
				<image width="23" height="15" xlink:href="AFFB3979.png"  transform="matrix(1 0 0 1 142.4154 417)">
				</image>
			</g>
			<g>
				<image width="25" height="39" xlink:href="AFFB3966.png"  transform="matrix(1 0 0 1 205.4154 406)">
				</image>
				<linearGradient id="SVGID_23_" gradientUnits="userSpaceOnUse" x1="218.0699" y1="475.45" x2="218.0699" y2="431.2332">
					<stop  offset="0" style="stop-color:#FF9800"/>
					<stop  offset="0.2181" style="stop-color:#FDAF1F"/>
					<stop  offset="0.4991" style="stop-color:#FBC740"/>
					<stop  offset="0.7327" style="stop-color:#F9D755"/>
					<stop  offset="0.8885" style="stop-color:#F9DC5C"/>
				</linearGradient>
				<path fill="url(#SVGID_23_)" d="M198.9,475.5v-8.7c0-4,1.2-6.9,2.4-11.6l3.4-12.8c0.5-1.3,1.5-2.3,2.7-3
					c0.2-0.1,0.4-0.2,0.6-0.3c0.8-0.3,1.3-1.1,1.3-2v-0.9c0-1.5,1-2.9,2.4-3.5c2.9-1.1,8-2.4,12.5-0.3c1.3,0.6,2.1,1.9,2.1,3.4v2.3
					l2.6,3.2c1.7,2,2.8,4.5,3.3,7l4.1,13.2c0.7,2.2,1,4.5,1,6.8v7.1H198.9z"/>
				<image width="40" height="14" xlink:href="AFFB3969.png"  transform="matrix(1 0 0 1 197.4154 459)">
				</image>
				<path fill="#F5EFFF" d="M196.9,473l0.8-8.6c0.2-0.8,1.2-1,1.7-0.3l0.1,0.2c0.4,0.7,0.7,1.4,0.8,2.2c0,0.1,0,0.3,0.1,0.4
					c0.4,2.4,2.6,4,5,3.8c2.2-0.2,7.1-3.1,12-3.1c4.9,0,9.6,2.9,11.5,3.1c2.7,0.3,5.2-1.5,5.6-4.2c0,0,0,0,0-0.1
					c0.1-0.8,0.3-1.5,0.8-2.2l0.1-0.2c0.4-0.7,1.5-0.5,1.7,0.3l0.8,8.6c0,0,0.1,0.1,0.1,0.1v3.9c0,2.3-1.5,4.4-3.8,5
					c-3.4,1-9.2,2.2-16.8,2.1c-7.6,0.1-13.4-1.1-16.8-2.1c-2.2-0.7-3.8-2.7-3.8-5L196.9,473C196.9,473,196.9,473,196.9,473z"/>
				<image width="16" height="30" xlink:href="AFFB396A.png"  transform="matrix(1 0 0 1 199.4154 438)">
				</image>
				<g>
					<path fill="#231F20" d="M224.8,457.5c-0.2,0-0.3-0.1-0.5-0.2c-6-4.4-12.3-0.2-12.5,0c-0.4,0.3-0.9,0.2-1.2-0.2
						c-0.3-0.4-0.2-0.9,0.2-1.2c0.1-0.1,7.5-5.1,14.5,0c0.4,0.3,0.5,0.8,0.2,1.2C225.3,457.4,225,457.5,224.8,457.5z"/>
				</g>
				<g>
					<path fill="#231F20" d="M211.2,451.5c-0.3,0-0.5-0.1-0.7-0.4c-0.3-0.4-0.2-0.9,0.2-1.2c0.1-0.1,7.5-5.1,14.5,0
						c0.4,0.3,0.5,0.8,0.2,1.2c-0.3,0.4-0.8,0.5-1.2,0.2c-6-4.4-12.5,0-12.5,0C211.6,451.5,211.4,451.5,211.2,451.5z"/>
				</g>
				<g>
					<path fill="#231F20" d="M210.3,445.9c-0.3,0-0.5-0.1-0.7-0.4c-0.3-0.4-0.2-0.9,0.2-1.2c0.1-0.1,7.5-5.1,14.5,0
						c0.4,0.3,0.5,0.8,0.2,1.2c-0.3,0.4-0.8,0.5-1.2,0.2c-6-4.4-12.5,0-12.5,0C210.7,445.8,210.5,445.9,210.3,445.9z"/>
				</g>
				<image width="30" height="13" xlink:href="AFFB396E.png"  transform="matrix(1 0 0 1 200.4154 454)">
				</image>
				<image width="22" height="15" xlink:href="AFFB396F.png"  transform="matrix(1 0 0 1 206.4154 417)">
				</image>
			</g>
			<g>
				<path fill="#7371FC" d="M141.7,418.1l-7.4-71.4c-0.8-7.7,2.7-15.1,9-19.5h0c7.6-5.2,17.4-5.7,25.5-1.5l12.3,8.2l1.9,10.3V361
					l-17.2,6.5l-0.2,50.4c0,1.5-0.9,2.9-2.4,3.4h0c-5.8,2.2-12.2,2.3-18,0.3l-1.1-0.4C142.8,420.7,141.9,419.5,141.7,418.1z"/>
				<image width="22" height="43" xlink:href="AFFB3964.png"  transform="matrix(1 0 0 1 164.4154 325)">
				</image>
				<image width="19" height="100" xlink:href="AFFB3965.png"  transform="matrix(1 0 0 1 133.4154 323)">
				</image>
				<image width="9" height="56" xlink:href="AFFB3962.png"  transform="matrix(1 0 0 1 157.4154 367)">
				</image>
			</g>
			<g>
				<path fill="#7371FC" d="M229.4,418.1l7.4-71.4c0.8-7.7-2.7-15.1-9-19.5h0c-7.6-5.2-17.4-5.7-25.5-1.5l-12.3,8.2l-1.9,10.3V361
					l17.2,6.5l0.2,50.4c0,1.5,0.9,2.9,2.4,3.4l0,0c5.8,2.2,12.2,2.3,18,0.3l1.1-0.4C228.3,420.7,229.3,419.5,229.4,418.1z"/>
				<image width="21" height="44" xlink:href="AFFB3963.png"  transform="matrix(1 0 0 1 185.4154 324)">
				</image>
				<image width="18" height="100" xlink:href="AFFB3943.png"  transform="matrix(1 0 0 1 219.4154 323)">
				</image>
				<image width="10" height="56" xlink:href="AFFB3945.png"  transform="matrix(1 0 0 1 204.4154 367)">
				</image>
			</g>
			<image width="51" height="27" xlink:href="AFFB3947.png"  transform="matrix(1 0 0 1 135.4154 328)">
			</image>
			<image width="51" height="27" xlink:href="AFFB3942.png"  transform="matrix(1 0 0 1 185.4154 328)">
			</image>
		</g>
		<g>
			<path fill="#F5EFFF" d="M236.2,330.4h-98.5c-2.3,0-4.1-1.9-4.1-4.1l-2.6-59.2c0-2.3,1.9-4.1,4.1-4.1h103.7c2.3,0,4.1,1.9,4.1,4.1
				l-2.6,59.2C240.3,328.6,238.5,330.4,236.2,330.4z"/>
			<image width="26" height="28" xlink:href="AFFB3941.png"  transform="matrix(1 0 0 1 177.4154 285)">
			</image>
			<circle fill="#EBE6FF" cx="186.9" cy="296.7" r="8.9"/>
			<path fill="#CDC1FF" d="M192.8,290.1c1.4,1.6,2.3,3.6,2.3,5.9c0,4.9-4,8.9-8.9,8.9c-2.3,0-4.4-0.9-5.9-2.3c1.6,1.8,4,2.9,6.6,2.9
				c4.9,0,8.9-4,8.9-8.9C195.8,294.1,194.6,291.7,192.8,290.1z"/>
			<image width="110" height="69" xlink:href="AFFB393D.png"  transform="matrix(1 0 0 1 133.4154 262)">
			</image>
			<image width="113" height="69" xlink:href="AFFB393F.png"  transform="matrix(1 0 0 1 130.4154 262)">
			</image>
		</g>
	</g>
</g>
<g>
	<linearGradient id="SVGID_24_" gradientUnits="userSpaceOnUse" x1="183.4954" y1="140.1662" x2="183.4954" y2="130.7937">
		<stop  offset="0" style="stop-color:#A594F9"/>
		<stop  offset="8.755321e-02" style="stop-color:#A08FF1"/>
		<stop  offset="0.2215" style="stop-color:#9283DC"/>
		<stop  offset="0.3852" style="stop-color:#7B6EB9"/>
		<stop  offset="0.5724" style="stop-color:#5A5189"/>
		<stop  offset="0.7795" style="stop-color:#312C4A"/>
		<stop  offset="1" style="stop-color:#000000"/>
	</linearGradient>
	<circle fill="url(#SVGID_24_)" cx="183.5" cy="135.5" r="4.7"/>
	<image width="10" height="11" xlink:href="AFFB39C2.png"  transform="matrix(1 0 0 1 178.4154 130)">
	</image>
	<g>
		<image width="41" height="55" xlink:href="AFFB39C3.png"  transform="matrix(1 0 0 1 163.4154 74)">
		</image>
	</g>
	<image width="26" height="28" xlink:href="AFFB39C5.png"  transform="matrix(1 0 0 1 176.4154 76)">
	</image>
	<linearGradient id="SVGID_25_" gradientUnits="userSpaceOnUse" x1="183.4332" y1="135.5484" x2="183.4332" y2="130.0334">
		<stop  offset="0" style="stop-color:#000000"/>
		<stop  offset="7.165331e-02" style="stop-color:#151320"/>
		<stop  offset="0.2129" style="stop-color:#3B3559"/>
		<stop  offset="0.3547" style="stop-color:#5B528A"/>
		<stop  offset="0.4938" style="stop-color:#766AB2"/>
		<stop  offset="0.6296" style="stop-color:#8A7CD1"/>
		<stop  offset="0.7612" style="stop-color:#9989E7"/>
		<stop  offset="0.8868" style="stop-color:#A291F4"/>
		<stop  offset="1" style="stop-color:#A594F9"/>
	</linearGradient>
	<path fill="url(#SVGID_25_)" d="M191.5,130.2l-16-0.1c-1.1,0-1.9,0.8-1.9,1.9l0,1.5c0,1.1,0.8,1.9,1.9,1.9l16,0.1
		c1.1,0,1.9-0.8,1.9-1.9l0-1.5C193.4,131,192.5,130.2,191.5,130.2z"/>
	<linearGradient id="SVGID_26_" gradientUnits="userSpaceOnUse" x1="183.513" y1="130.7288" x2="183.513" y2="125.173">
		<stop  offset="0" style="stop-color:#000000"/>
		<stop  offset="7.165331e-02" style="stop-color:#151320"/>
		<stop  offset="0.2129" style="stop-color:#3B3559"/>
		<stop  offset="0.3547" style="stop-color:#5B528A"/>
		<stop  offset="0.4938" style="stop-color:#766AB2"/>
		<stop  offset="0.6296" style="stop-color:#8A7CD1"/>
		<stop  offset="0.7612" style="stop-color:#9989E7"/>
		<stop  offset="0.8868" style="stop-color:#A291F4"/>
		<stop  offset="1" style="stop-color:#A594F9"/>
	</linearGradient>
	<path fill="url(#SVGID_26_)" d="M193.9,125.4l-20.7-0.2c-1.1,0-1.9,0.8-1.9,1.9l0,1.5c0,1.1,0.8,1.9,1.9,1.9l20.7,0.2
		c1.1,0,1.9-0.8,1.9-1.9l0-1.5C195.8,126.2,195,125.4,193.9,125.4z"/>
	<linearGradient id="SVGID_27_" gradientUnits="userSpaceOnUse" x1="183.5563" y1="125.7096" x2="183.5563" y2="120.1539">
		<stop  offset="0" style="stop-color:#000000"/>
		<stop  offset="7.165331e-02" style="stop-color:#151320"/>
		<stop  offset="0.2129" style="stop-color:#3B3559"/>
		<stop  offset="0.3547" style="stop-color:#5B528A"/>
		<stop  offset="0.4938" style="stop-color:#766AB2"/>
		<stop  offset="0.6296" style="stop-color:#8A7CD1"/>
		<stop  offset="0.7612" style="stop-color:#9989E7"/>
		<stop  offset="0.8868" style="stop-color:#A291F4"/>
		<stop  offset="1" style="stop-color:#A594F9"/>
	</linearGradient>
	<path fill="url(#SVGID_27_)" d="M193.9,120.3l-20.7-0.2c-1.1,0-1.9,0.8-1.9,1.9l0,1.5c0,1.1,0.8,1.9,1.9,1.9l20.7,0.2
		c1.1,0,1.9-0.8,1.9-1.9l0-1.5C195.8,121.2,195,120.3,193.9,120.3z"/>
</g>
</svg>
